<svg version="1.1" id="Layer_1" xmlns="http://www.w3.org/2000/svg" xmlns:xlink="http://www.w3.org/1999/xlink" x="0px" y="0px"
	 width="100%" viewBox="0 0 64 64" enable-background="new 0 0 64 64" xml:space="preserve">
<path fill="#000000" opacity="1.000000" stroke="none" 
	d="
M38.000000,65.000000 
	C25.693296,65.000000 13.386592,65.000000 1.079887,65.000000 
	C1.053258,64.860321 1.003322,64.720650 1.003299,64.580971 
	C0.999846,43.460003 1.000000,22.339037 1.000000,1.109035 
	C22.214085,1.109035 43.428913,1.109035 65.000000,1.109035 
	C65.000000,13.351945 65.000000,25.707314 64.712799,38.819283 
	C64.224144,39.394447 64.022675,39.213020 63.895287,38.658863 
	C60.691261,34.064220 57.052307,30.064766 54.263474,25.541197 
	C52.442413,22.587389 49.946690,22.399315 47.754295,23.215380 
	C46.195263,23.795692 45.362080,26.326044 44.127914,28.306892 
	C43.705002,29.066805 43.359123,29.505913 42.876930,29.613035 
	C42.309593,29.497694 41.878571,29.714338 41.253716,29.572607 
	C40.696541,29.783873 40.333210,30.353514 39.678551,31.008869 
	C38.984283,31.751900 38.581341,32.409218 38.112061,33.306152 
	C38.045723,33.545769 38.010796,34.041801 37.707977,34.092804 
	C36.999866,34.802601 36.594570,35.461403 36.131390,36.293510 
	C36.073502,36.466816 36.026566,36.829231 35.776733,36.950993 
	C35.325874,37.372551 35.124851,37.672348 34.958458,37.987629 
	C34.993084,38.003113 35.024254,37.933949 34.777878,38.023849 
	C34.358856,38.403934 34.186214,38.694118 33.968033,39.125385 
	C33.922493,39.266472 33.969563,39.559216 33.729195,39.744427 
	C33.288994,40.268612 33.089165,40.607586 32.649525,41.124130 
	C32.286774,41.877048 32.163834,42.452389 31.628288,43.002991 
	C26.984884,43.483372 28.825281,46.261951 29.692720,47.978340 
	C32.272068,53.082066 35.211208,58.003963 38.179417,63.388149 
	C38.232731,64.186249 38.116367,64.593124 38.000000,65.000000 
M23.265175,4.056032 
	C21.834490,4.368942 20.403805,4.681851 18.364246,5.316224 
	C17.194916,7.867304 16.025585,10.418386 14.355163,13.408638 
	C13.552369,15.268148 12.749576,17.127657 11.472089,19.456566 
	C10.644142,21.286566 9.816195,23.116564 8.443020,25.384987 
	C6.979821,29.594414 5.516622,33.803837 3.576509,38.465866 
	C3.906812,41.196007 1.721691,44.625309 5.806073,46.590942 
	C7.367002,44.844124 8.811854,43.227203 10.994302,40.784847 
	C11.449970,43.683971 11.753364,45.427235 11.993036,47.179211 
	C12.451396,50.529755 17.331272,54.819153 21.813786,55.008648 
	C25.381639,52.475445 24.685078,48.565197 25.022028,44.159866 
	C24.952148,39.821232 24.882269,35.482597 25.018225,30.504761 
	C25.376245,29.960278 25.734266,29.415796 26.774853,28.494301 
	C26.809015,26.652416 26.843176,24.810532 26.975498,22.318201 
	C26.982742,21.879759 26.989986,21.441319 27.722218,20.875265 
	C30.565229,18.649166 30.598696,15.950884 29.013008,12.209891 
	C28.636316,10.465281 28.259624,8.720671 27.967472,6.268859 
	C27.339025,5.500377 26.710579,4.731895 25.881517,3.553146 
	C25.561831,3.691288 25.242146,3.829429 24.474813,4.067943 
	C24.474813,4.067943 24.033743,4.194098 23.265175,4.056032 
z"/>
<path fill="#C0BCB2" opacity="1.000000" stroke="none" 
	d="
M65.000000,41.000000 
	C65.000000,43.042316 65.000000,45.084637 64.645462,47.635422 
	C59.921810,49.538349 59.651859,53.382057 58.999290,57.299801 
	C58.995739,58.004059 58.993534,58.406475 58.645725,58.881065 
	C57.203266,59.231934 56.106411,59.510632 54.989445,59.434593 
	C54.117485,56.863724 51.945198,53.989113 52.660595,52.554546 
	C54.833996,48.196281 55.335476,44.259022 53.438766,39.988548 
	C56.565746,39.680927 59.272724,39.373882 62.082584,39.378349 
	C63.123646,40.126575 64.061821,40.563286 65.000000,41.000000 
z"/>
<path fill="#000000" opacity="1.000000" stroke="none" 
	d="
M55.009552,59.789330 
	C56.106411,59.510632 57.203266,59.231934 58.987637,58.953613 
	C60.731358,58.297760 61.787563,57.641529 62.926624,56.583023 
	C63.672989,55.787167 64.336494,55.393585 65.000000,55.000000 
	C65.000000,58.289814 65.000000,61.579624 65.000000,65.000000 
	C57.312828,65.000000 49.625107,65.000000 41.129547,64.706924 
	C42.893921,63.307526 45.466137,62.201191 48.407509,61.048248 
	C49.516064,60.941193 50.255463,60.880745 51.298725,60.891449 
	C52.079823,60.668549 52.557053,60.374504 53.365311,60.036957 
	C54.134071,59.925415 54.571812,59.857372 55.009552,59.789330 
z"/>
<path fill="#C7C3B8" opacity="1.000000" stroke="none" 
	d="
M65.000000,54.562500 
	C64.336494,55.393585 63.672989,55.787167 62.542706,56.588268 
	C61.050835,56.996510 60.025738,56.997231 59.000641,56.997955 
	C59.651859,53.382057 59.921810,49.538349 64.645462,48.071945 
	C65.000000,50.041668 65.000000,52.083332 65.000000,54.562500 
z"/>
<path fill="#B4B1A9" opacity="1.000000" stroke="none" 
	d="
M48.038353,61.094856 
	C45.466137,62.201191 42.893921,63.307526 40.660851,64.706924 
	C40.250000,65.000000 39.500000,65.000000 38.375000,65.000000 
	C38.116367,64.593124 38.232731,64.186249 38.424828,63.111290 
	C38.666813,60.959900 38.833069,59.476597 39.249115,57.998505 
	C39.498913,58.003719 39.998482,57.997242 40.284233,58.223370 
	C43.059444,59.331284 45.548897,60.213070 48.038353,61.094856 
z"/>
<path fill="#C7C3B8" opacity="1.000000" stroke="none" 
	d="
M65.000000,40.666668 
	C64.061821,40.563286 63.123646,40.126575 62.389233,39.354958 
	C63.002396,39.023895 63.411797,39.027744 63.821198,39.031590 
	C64.022675,39.213020 64.224144,39.394447 64.712799,39.287941 
	C65.000000,39.444447 65.000000,39.888889 65.000000,40.666668 
z"/>
<path fill="#3E2D25" opacity="1.000000" stroke="none" 
	d="
M21.044340,55.100773 
	C17.331272,54.819153 12.451396,50.529755 11.993036,47.179211 
	C11.753364,45.427235 11.449970,43.683971 10.994302,40.784847 
	C8.811854,43.227203 7.367002,44.844124 5.806073,46.590942 
	C1.721691,44.625309 3.906812,41.196007 4.211211,38.232460 
	C8.712726,38.138832 11.400518,37.329891 10.101002,32.419029 
	C9.652952,30.725857 10.004010,28.821226 10.387955,27.013611 
	C12.858435,27.346329 14.930991,27.678627 16.988266,28.369986 
	C17.529736,34.476299 20.337667,40.088322 18.010708,46.338707 
	C18.011589,47.108749 18.012753,47.548866 18.060333,48.302238 
	C18.736208,49.410770 19.365665,50.206039 20.009109,51.356838 
	C20.363510,52.841835 20.703926,53.971302 21.044340,55.100773 
z"/>
<path fill="#443025" opacity="1.000000" stroke="none" 
	d="
M18.010990,46.008785 
	C20.337667,40.088322 17.529736,34.476299 16.985531,27.989510 
	C16.340410,24.505455 15.682742,21.760939 15.366209,18.950644 
	C17.808548,17.258162 19.909750,15.631455 22.316023,13.919960 
	C23.421787,12.886470 24.222481,11.937770 25.216110,11.126228 
	C25.652399,11.472589 25.843599,11.721808 25.809406,12.174702 
	C25.624834,12.831462 25.613503,13.324564 25.602171,13.817667 
	C25.734798,13.544086 25.867426,13.270503 26.335688,12.997504 
	C27.118998,12.998450 27.566671,12.998814 28.272762,12.995044 
	C28.703470,12.989396 28.875761,12.987884 29.048052,12.986371 
	C30.598696,15.950884 30.565229,18.649166 27.131866,21.018494 
	C26.255840,21.335920 26.051020,21.578415 25.584740,21.989838 
	C22.070381,24.783815 22.276062,27.053823 26.092285,28.871315 
	C25.734266,29.415796 25.376245,29.960278 24.567913,30.885685 
	C23.086535,35.500057 22.055466,39.733509 20.856602,44.238541 
	C19.796202,45.009682 18.903597,45.509232 18.010990,46.008785 
z"/>
<path fill="#DDDCD2" opacity="1.000000" stroke="none" 
	d="
M63.895287,38.658863 
	C63.411797,39.027744 63.002396,39.023895 62.286346,39.043442 
	C59.272724,39.373882 56.565746,39.680927 53.448395,39.681622 
	C53.074257,38.967106 53.110497,38.558945 53.345249,37.921047 
	C52.963757,36.670731 52.383751,35.650146 51.803745,34.629562 
	C51.215427,35.418411 50.627113,36.207260 49.836315,37.095200 
	C49.368462,37.352547 49.164787,37.568886 48.775879,37.814484 
	C48.528950,37.785660 48.049904,37.918812 48.031433,37.946709 
	C48.012966,37.974606 48.079586,37.980877 48.076843,37.633293 
	C47.724838,37.000595 47.375580,36.715481 47.066818,36.283768 
	C46.965874,35.928429 46.787289,35.889160 46.350487,35.742226 
	C45.765808,34.602024 45.402218,33.738949 45.032097,32.552937 
	C45.008751,31.584711 44.991936,30.939421 45.285500,30.361788 
	C46.308590,30.132996 47.021297,29.836548 47.734005,29.540100 
	C46.790337,29.013109 45.846668,28.486118 44.728477,27.965607 
	C44.553955,27.972084 44.204948,27.986088 44.204948,27.986088 
	C45.362080,26.326044 46.195263,23.795692 47.754295,23.215380 
	C49.946690,22.399315 52.442413,22.587389 54.263474,25.541197 
	C57.052307,30.064766 60.691261,34.064220 63.895287,38.658863 
M55.533257,38.508560 
	C55.533257,38.508560 55.470585,38.536217 55.533257,38.508560 
M49.529873,31.504168 
	C49.529873,31.504168 49.483284,31.522547 49.529873,31.504168 
z"/>
<path fill="#9D998F" opacity="1.000000" stroke="none" 
	d="
M38.999321,57.993290 
	C38.833069,59.476597 38.666813,60.959900 38.255146,62.720062 
	C35.211208,58.003963 32.272068,53.082066 29.692720,47.978340 
	C28.825281,46.261951 26.984884,43.483372 31.829945,43.226181 
	C33.229488,44.038971 34.014774,44.603817 34.804871,45.308968 
	C34.809689,45.449272 34.826656,45.732613 34.685619,45.886253 
	C34.669777,46.358185 34.794975,46.676476 34.912285,47.026802 
	C34.904392,47.058842 34.966118,47.082180 34.976456,47.324226 
	C34.986797,47.566273 35.053692,48.046169 35.201851,48.313145 
	C35.898521,48.845463 36.447037,49.110802 36.981796,49.660610 
	C37.235268,50.425465 37.502506,50.905849 37.793652,51.483200 
	C37.817558,51.580173 37.849220,51.777397 37.853401,52.175800 
	C38.235516,54.035686 38.613449,55.497169 38.994705,57.217300 
	C38.998459,57.648399 38.998894,57.820847 38.999321,57.993290 
z"/>
<path fill="#45342B" opacity="1.000000" stroke="none" 
	d="
M9.990031,27.013189 
	C10.004010,28.821226 9.652952,30.725857 10.101002,32.419029 
	C11.400518,37.329891 8.712726,38.138832 4.449667,38.006161 
	C5.516622,33.803837 6.979821,29.594414 8.763132,25.458538 
	C9.385508,26.025789 9.687770,26.519489 9.990031,27.013189 
z"/>
<path fill="#38231A" opacity="1.000000" stroke="none" 
	d="
M22.010954,14.004749 
	C19.909750,15.631455 17.808548,17.258162 14.981373,18.945251 
	C13.485863,18.999479 12.716322,18.993322 11.946782,18.987167 
	C12.749576,17.127657 13.552369,15.268148 14.979022,13.140884 
	C17.703598,13.450271 20.792624,8.430878 22.010954,14.004749 
z"/>
<path fill="#6F6C5C" opacity="1.000000" stroke="none" 
	d="
M21.024397,43.966957 
	C22.055466,39.733509 23.086535,35.500057 24.464996,31.205284 
	C24.882269,35.482597 24.952148,39.821232 24.682430,44.572239 
	C23.236689,44.645393 22.130543,44.306175 21.024397,43.966957 
z"/>
<path fill="#49342A" opacity="1.000000" stroke="none" 
	d="
M20.856602,44.238541 
	C22.130543,44.306175 23.236689,44.645393 24.694822,44.990646 
	C24.685078,48.565197 25.381639,52.475445 21.429062,55.054710 
	C20.703926,53.971302 20.363510,52.841835 19.992020,51.018589 
	C19.311934,49.546204 18.662926,48.767593 18.013916,47.988983 
	C18.012753,47.548866 18.011589,47.108749 18.010708,46.338707 
	C18.903597,45.509232 19.796202,45.009682 20.856602,44.238541 
z"/>
<path fill="#452D20" opacity="1.000000" stroke="none" 
	d="
M22.316023,13.919960 
	C20.792624,8.430878 17.703598,13.450271 15.229568,12.921299 
	C16.025585,10.418386 17.194916,7.867304 18.942699,5.292074 
	C20.359093,5.848038 21.197035,6.428151 22.102097,7.347894 
	C23.106291,8.129858 24.043362,8.572193 24.984818,9.343573 
	C25.000525,10.111435 25.011850,10.550253 25.023176,10.989071 
	C24.222481,11.937770 23.421787,12.886470 22.316023,13.919960 
z"/>
<path fill="#38241C" opacity="1.000000" stroke="none" 
	d="
M11.709435,19.221867 
	C12.716322,18.993322 13.485863,18.999479 14.640238,19.011028 
	C15.682742,21.760939 16.340410,24.505455 17.000813,27.630449 
	C14.930991,27.678627 12.858435,27.346329 10.387955,27.013611 
	C9.687770,26.519489 9.385508,26.025789 9.035747,25.239326 
	C9.816195,23.116564 10.644142,21.286566 11.709435,19.221867 
z"/>
<path fill="#807C6B" opacity="1.000000" stroke="none" 
	d="
M26.433571,28.682808 
	C22.276062,27.053823 22.070381,24.783815 25.712044,22.196259 
	C26.366951,22.572878 26.598843,22.795078 26.877337,22.968647 
	C26.843176,24.810532 26.809015,26.652416 26.433571,28.682808 
z"/>
<path fill="#775A46" opacity="1.000000" stroke="none" 
	d="
M24.980434,9.014528 
	C24.043362,8.572193 23.106291,8.129858 22.408480,7.262416 
	C23.109741,5.956238 23.571741,5.075167 24.033743,4.194098 
	C24.033743,4.194098 24.474813,4.067943 24.988667,4.021453 
	C25.695724,3.971114 25.888927,3.967264 26.082132,3.963414 
	C26.710579,4.731895 27.339025,5.500377 27.700359,6.764400 
	C26.922714,7.748977 26.412186,8.238012 25.669556,8.793163 
	C25.437454,8.859281 24.980434,9.014528 24.980434,9.014528 
z"/>
<path fill="#714E37" opacity="1.000000" stroke="none" 
	d="
M23.649460,4.125065 
	C23.571741,5.075167 23.109741,5.956238 22.341358,6.922786 
	C21.197035,6.428151 20.359093,5.848038 19.247135,5.131343 
	C20.403805,4.681851 21.834490,4.368942 23.649460,4.125065 
z"/>
<path fill="#393631" opacity="1.000000" stroke="none" 
	d="
M33.969563,39.559216 
	C33.969563,39.559216 33.922493,39.266472 34.207733,39.036339 
	C34.670067,38.515457 34.847160,38.224705 35.024254,37.933949 
	C35.024254,37.933949 34.993084,38.003113 35.284191,38.115719 
	C36.212154,38.500748 36.849007,38.773174 37.481323,39.181381 
	C37.570187,39.515255 37.722210,39.584511 37.810730,39.861141 
	C37.643406,40.671318 37.598217,41.145283 37.389236,41.701260 
	C37.225449,41.783276 36.990585,42.066772 36.674973,41.945438 
	C35.576511,41.517731 34.793659,41.211357 34.185989,40.797951 
	C34.361172,40.690922 34.269917,40.290607 34.204742,40.103687 
	C34.139572,39.916767 33.969563,39.559216 33.969563,39.559216 
z"/>
<path fill="#516A58" opacity="1.000000" stroke="none" 
	d="
M38.010796,34.041801 
	C38.010796,34.041801 38.045723,33.545769 38.407417,33.327362 
	C39.491199,33.425339 40.213287,33.741722 40.963989,34.444946 
	C41.011150,35.616177 41.029694,36.400562 40.700142,37.140926 
	C39.885860,37.059750 39.419678,37.022594 38.978119,36.991333 
	C39.002735,36.997227 39.015751,37.046150 38.966759,36.730240 
	C38.615444,35.623489 38.313118,34.832645 38.010796,34.041801 
z"/>
<path fill="#848178" opacity="1.000000" stroke="none" 
	d="
M34.800056,45.168667 
	C34.014774,44.603817 33.229488,44.038971 32.242550,43.250927 
	C32.163834,42.452389 32.286774,41.877048 33.008064,40.988346 
	C33.827583,40.546860 34.048752,40.418732 34.269917,40.290607 
	C34.269917,40.290607 34.361172,40.690922 34.311852,41.115364 
	C34.591751,42.604961 34.920971,43.670124 35.139130,44.845161 
	C35.028072,44.955036 34.800056,45.168667 34.800056,45.168667 
z"/>
<path fill="#5A3E2C" opacity="1.000000" stroke="none" 
	d="
M25.901657,8.727047 
	C26.412186,8.238012 26.922714,7.748977 27.658089,7.118001 
	C28.259624,8.720671 28.636316,10.465281 29.030529,12.598131 
	C28.875761,12.987884 28.703470,12.989396 28.220554,12.654728 
	C27.240505,11.121380 26.571081,9.924213 25.901657,8.727047 
z"/>
<path fill="#D4D1C4" opacity="1.000000" stroke="none" 
	d="
M44.975121,30.294132 
	C44.991936,30.939421 45.008751,31.584711 44.715302,32.497028 
	C44.202267,32.694267 43.999493,32.624481 43.782761,32.554955 
	C43.768806,32.555214 43.778408,32.510765 43.705116,32.209412 
	C43.441723,31.541256 43.251621,31.174456 43.067802,30.590971 
	C43.074093,30.374285 43.013248,29.945021 43.013248,29.945021 
	C43.359123,29.505913 43.705002,29.066805 44.127914,28.306892 
	C44.204948,27.986088 44.553955,27.972084 44.730270,28.354124 
	C44.929432,29.255487 44.952274,29.774809 44.975121,30.294132 
z"/>
<path fill="#784E41" opacity="1.000000" stroke="none" 
	d="
M37.932858,39.524925 
	C37.722210,39.584511 37.570187,39.515255 37.298191,38.901962 
	C36.755249,37.934254 36.390907,37.381741 36.026566,36.829231 
	C36.026566,36.829231 36.073502,36.466816 36.428837,36.314972 
	C37.528030,36.457470 38.271893,36.751808 39.015751,37.046150 
	C39.015751,37.046150 39.002735,36.997227 38.963989,37.305542 
	C38.594448,38.250877 38.263653,38.887901 37.932858,39.524925 
z"/>
<path fill="#8F8A82" opacity="1.000000" stroke="none" 
	d="
M40.935379,34.058105 
	C40.213287,33.741722 39.491199,33.425339 38.473755,33.087746 
	C38.581341,32.409218 38.984283,31.751900 39.788292,31.245325 
	C40.480343,31.569008 40.771328,31.741947 41.052742,32.265743 
	C41.025917,33.082161 41.008659,33.547726 40.977554,34.023773 
	C40.963707,34.034260 40.935379,34.058105 40.935379,34.058105 
z"/>
<path fill="#8B8C82" opacity="1.000000" stroke="none" 
	d="
M38.966759,36.730240 
	C38.271893,36.751808 37.528030,36.457470 36.486725,36.141663 
	C36.594570,35.461403 36.999866,34.802601 37.707977,34.092804 
	C38.313118,34.832645 38.615444,35.623489 38.966759,36.730240 
z"/>
<path fill="#405F4A" opacity="1.000000" stroke="none" 
	d="
M41.062309,31.914886 
	C40.771328,31.741947 40.480343,31.569008 40.079620,31.159611 
	C40.333210,30.353514 40.696541,29.783873 41.479507,29.759045 
	C41.965927,30.487141 42.032722,30.670422 41.929329,31.034115 
	C41.524937,31.446062 41.292660,31.679516 41.062309,31.914886 
z"/>
<path fill="#7B7971" opacity="1.000000" stroke="none" 
	d="
M35.776733,36.950993 
	C36.390907,37.381741 36.755249,37.934254 37.302727,38.766182 
	C36.849007,38.773174 36.212154,38.500748 35.249565,38.100235 
	C35.124851,37.672348 35.325874,37.372551 35.776733,36.950993 
z"/>
<path fill="#C2C0B3" opacity="1.000000" stroke="none" 
	d="
M42.099514,30.853703 
	C42.032722,30.670422 41.965927,30.487141 41.673344,30.117420 
	C41.878571,29.714338 42.309593,29.497694 42.876930,29.613035 
	C43.013248,29.945021 43.074093,30.374285 42.827728,30.611572 
	C42.581360,30.848858 42.099514,30.853703 42.099514,30.853703 
z"/>
<path fill="#8E8B7B" opacity="1.000000" stroke="none" 
	d="
M26.926418,22.643425 
	C26.598843,22.795078 26.366951,22.572878 26.054354,22.095623 
	C26.051020,21.578415 26.255840,21.335920 26.769371,21.082298 
	C26.989986,21.441319 26.982742,21.879759 26.926418,22.643425 
z"/>
<path fill="#737067" opacity="1.000000" stroke="none" 
	d="
M34.777878,38.023849 
	C34.847160,38.224705 34.670067,38.515457 34.253273,38.895256 
	C34.186214,38.694118 34.358856,38.403934 34.777878,38.023849 
z"/>
<path fill="#737067" opacity="1.000000" stroke="none" 
	d="
M34.204742,40.103687 
	C34.048752,40.418732 33.827583,40.546860 33.247879,40.810776 
	C33.089165,40.607586 33.288994,40.268612 33.729195,39.744427 
	C33.969563,39.559216 34.139572,39.916767 34.204742,40.103687 
z"/>
<path fill="#714E37" opacity="1.000000" stroke="none" 
	d="
M25.981825,3.758280 
	C25.888927,3.967264 25.695724,3.971114 25.212490,3.971268 
	C25.242146,3.829429 25.561831,3.691288 25.981825,3.758280 
z"/>
<path fill="#B9B6AB" opacity="1.000000" stroke="none" 
	d="
M53.146736,38.150780 
	C53.110497,38.558945 53.074257,38.967106 53.028389,39.682198 
	C55.335476,44.259022 54.833996,48.196281 52.660595,52.554546 
	C51.945198,53.989113 54.117485,56.863724 54.989445,59.434589 
	C54.571812,59.857372 54.134071,59.925415 53.188858,59.858139 
	C52.119209,60.088646 51.557034,60.454472 50.994858,60.820297 
	C50.255463,60.880745 49.516064,60.941193 48.407509,61.048248 
	C45.548897,60.213070 43.059444,59.331284 40.287918,57.887825 
	C40.003017,56.878727 40.000183,56.431305 40.252808,55.825363 
	C40.720825,54.403400 40.933388,53.139961 41.428040,51.845493 
	C42.188770,51.227989 42.667412,50.641514 43.413601,49.905010 
	C44.024040,48.820755 44.366936,47.886528 44.794884,46.725315 
	C44.879936,46.498329 45.077641,46.055676 45.056076,46.053238 
	C45.034512,46.050800 45.067856,46.063263 45.331284,45.949158 
	C45.995705,45.219620 46.396694,44.604191 46.860580,43.667641 
	C47.009094,42.918694 47.094723,42.490864 47.458397,42.076748 
	C48.107483,42.084827 48.478519,42.079193 49.219322,41.955078 
	C49.740414,41.097790 49.891739,40.358974 50.195389,39.404106 
	C50.643063,38.743610 50.938404,38.299175 51.555161,37.881317 
	C52.299961,37.988853 52.723347,38.069817 53.146736,38.150780 
z"/>
<path fill="#B9B6AB" opacity="1.000000" stroke="none" 
	d="
M58.999290,57.299797 
	C60.025738,56.997231 61.050835,56.996510 62.459850,56.990540 
	C61.787563,57.641529 60.731358,58.297760 59.333237,58.881443 
	C58.993534,58.406475 58.995739,58.004059 58.999290,57.299797 
z"/>
<path fill="#B4B1A9" opacity="1.000000" stroke="none" 
	d="
M51.298725,60.891441 
	C51.557034,60.454472 52.119209,60.088646 52.857838,59.901638 
	C52.557053,60.374504 52.079823,60.668549 51.298725,60.891441 
z"/>
<path fill="#96948C" opacity="1.000000" stroke="none" 
	d="
M39.997349,55.983879 
	C40.000183,56.431305 40.003017,56.878727 40.002167,57.661697 
	C39.998482,57.997242 39.498913,58.003719 39.249119,57.998505 
	C38.998894,57.820847 38.998459,57.648399 39.025009,57.019104 
	C39.367115,56.369469 39.682232,56.176674 39.997349,55.983879 
z"/>
<path fill="#443025" opacity="1.000000" stroke="none" 
	d="
M18.060333,48.302238 
	C18.662926,48.767593 19.311934,49.546204 19.978031,50.663063 
	C19.365665,50.206039 18.736208,49.410770 18.060333,48.302238 
z"/>
<path fill="#29211C" opacity="1.000000" stroke="none" 
	d="
M25.669556,8.793164 
	C26.571081,9.924213 27.240505,11.121380 27.962139,12.658862 
	C27.566671,12.998814 27.118998,12.998450 26.332172,12.751039 
	C25.993023,12.503990 25.982645,12.011045 25.982645,12.011045 
	C25.843599,11.721808 25.652399,11.472589 25.216110,11.126228 
	C25.011850,10.550253 25.000525,10.111435 24.984818,9.343573 
	C24.980434,9.014528 25.437454,8.859281 25.669556,8.793164 
z"/>
<path fill="#452D20" opacity="1.000000" stroke="none" 
	d="
M25.809406,12.174702 
	C25.982645,12.011045 25.993023,12.503990 25.996538,12.750456 
	C25.867426,13.270503 25.734798,13.544086 25.602171,13.817667 
	C25.613503,13.324564 25.624834,12.831462 25.809406,12.174702 
z"/>
<path fill="#A2A394" opacity="1.000000" stroke="none" 
	d="
M48.849560,42.073559 
	C48.478519,42.079193 48.107483,42.084827 47.188057,41.863487 
	C45.444157,40.391483 44.248634,39.146458 43.065895,37.668411 
	C43.097668,37.128609 43.104298,36.821552 43.319450,36.273354 
	C44.550743,36.028099 45.561157,36.023727 46.571568,36.019352 
	C46.787289,35.889160 46.965874,35.928429 47.091118,36.637058 
	C47.409805,37.418262 47.744698,37.699570 48.079586,37.980877 
	C48.079586,37.980877 48.012966,37.974606 47.972874,38.267731 
	C48.310787,39.035622 48.688793,39.510387 49.035126,39.983734 
	C49.003448,39.982315 49.037560,39.928856 48.950115,40.280045 
	C48.858299,41.112007 48.853928,41.592785 48.849560,42.073559 
z"/>
<path fill="#A8A08F" opacity="1.000000" stroke="none" 
	d="
M53.345249,37.921047 
	C52.723347,38.069817 52.299961,37.988853 51.376400,37.708279 
	C50.630684,37.282902 50.351540,37.112053 50.038799,36.996113 
	C50.627113,36.207260 51.215427,35.418411 51.803745,34.629562 
	C52.383751,35.650146 52.963757,36.670731 53.345249,37.921047 
z"/>
<path fill="#AEA794" opacity="1.000000" stroke="none" 
	d="
M45.285500,30.361788 
	C44.952274,29.774809 44.929432,29.255487 44.904793,28.347645 
	C45.846668,28.486118 46.790337,29.013109 47.734005,29.540100 
	C47.021297,29.836548 46.308590,30.132996 45.285500,30.361788 
z"/>
<path fill="#5B5852" opacity="1.000000" stroke="none" 
	d="
M46.350487,35.742226 
	C45.561157,36.023727 44.550743,36.028099 43.178551,36.041336 
	C42.888363,35.369331 42.959961,34.688465 43.008842,34.002987 
	C42.986118,33.998379 42.987778,34.043602 43.227463,33.864361 
	C43.577003,33.308311 43.686859,32.931499 43.796719,32.554691 
	C43.999493,32.624481 44.202267,32.694267 44.721832,32.819965 
	C45.402218,33.738949 45.765808,34.602024 46.350487,35.742226 
z"/>
<path fill="#C9C6B7" opacity="1.000000" stroke="none" 
	d="
M49.836315,37.095200 
	C50.351540,37.112053 50.630684,37.282902 51.054985,37.681702 
	C50.938404,38.299175 50.643063,38.743610 49.911572,39.375473 
	C49.329472,39.684883 49.183514,39.806870 49.037560,39.928856 
	C49.037560,39.928856 49.003448,39.982315 49.134560,39.632236 
	C49.184719,38.802540 49.103764,38.322922 49.022804,37.843304 
	C49.164787,37.568886 49.368462,37.352547 49.836315,37.095200 
z"/>
<path fill="#625F59" opacity="1.000000" stroke="none" 
	d="
M48.775879,37.814484 
	C49.103764,38.322922 49.184719,38.802540 49.166237,39.633659 
	C48.688793,39.510387 48.310787,39.035622 47.991341,38.239830 
	C48.049904,37.918812 48.528950,37.785660 48.775879,37.814484 
z"/>
<path fill="#C9C6B7" opacity="1.000000" stroke="none" 
	d="
M55.501923,38.522388 
	C55.470585,38.536217 55.533257,38.508560 55.501923,38.522388 
z"/>
<path fill="#625F59" opacity="1.000000" stroke="none" 
	d="
M48.076843,37.633293 
	C47.744698,37.699570 47.409805,37.418262 47.050617,36.783661 
	C47.375580,36.715481 47.724838,37.000595 48.076843,37.633293 
z"/>
<path fill="#D4D1C4" opacity="1.000000" stroke="none" 
	d="
M49.506577,31.513357 
	C49.483284,31.522547 49.529873,31.504168 49.506577,31.513357 
z"/>
<path fill="#6B6861" opacity="1.000000" stroke="none" 
	d="
M40.252808,55.825359 
	C39.682232,56.176674 39.367115,56.369469 39.021690,56.760456 
	C38.613449,55.497169 38.235516,54.035686 38.174149,52.116852 
	C39.090557,51.423222 39.690392,51.186947 40.478340,51.054562 
	C40.890057,51.355194 41.049889,51.594551 41.145950,51.876522 
	C40.933388,53.139961 40.720825,54.403400 40.252808,55.825359 
z"/>
<path fill="#818077" opacity="1.000000" stroke="none" 
	d="
M37.769745,51.386230 
	C37.502506,50.905849 37.235268,50.425465 37.008690,49.323677 
	C37.375122,48.162067 37.700897,47.621864 38.172424,47.348938 
	C38.548004,48.186996 38.777836,48.757778 38.848465,49.579239 
	C38.382755,50.348686 38.076248,50.867458 37.769745,51.386230 
z"/>
<path fill="#5E5C52" opacity="1.000000" stroke="none" 
	d="
M38.026672,47.081665 
	C37.700897,47.621864 37.375122,48.162067 37.022449,49.039207 
	C36.447037,49.110802 35.898521,48.845463 35.421272,48.194534 
	C35.681595,47.539883 35.870655,47.270821 36.096268,46.824650 
	C36.132816,46.647537 36.138733,46.285896 36.457642,46.205402 
	C36.986565,46.060886 37.196579,45.996861 37.560841,46.092682 
	C37.886124,46.503651 37.989986,46.780033 38.026672,47.081665 
z"/>
<path fill="#8B897E" opacity="1.000000" stroke="none" 
	d="
M37.793652,51.483200 
	C38.076248,50.867458 38.382755,50.348686 39.095612,49.681080 
	C39.764713,50.005051 40.027470,50.477859 40.290226,50.950668 
	C39.690392,51.186947 39.090557,51.423222 38.169968,51.718445 
	C37.849220,51.777397 37.817558,51.580173 37.793652,51.483200 
z"/>
<path fill="#848178" opacity="1.000000" stroke="none" 
	d="
M36.138733,46.285896 
	C36.138733,46.285896 36.132816,46.647537 35.822136,46.839798 
	C35.329674,47.048763 35.147896,47.065472 34.966118,47.082180 
	C34.966118,47.082180 34.904392,47.058842 34.899094,46.710682 
	C34.871410,46.152550 34.849033,45.942581 34.826656,45.732613 
	C34.826656,45.732613 34.809689,45.449272 34.804871,45.308968 
	C34.800056,45.168667 35.028072,44.955036 35.322647,44.886772 
	C35.617226,44.818504 35.985649,44.914513 36.017586,45.258575 
	C36.079258,45.830391 36.108997,46.058144 36.138733,46.285896 
z"/>
<path fill="#818077" opacity="1.000000" stroke="none" 
	d="
M34.976456,47.324226 
	C35.147896,47.065472 35.329674,47.048763 35.785583,47.016907 
	C35.870655,47.270821 35.681595,47.539883 35.273113,47.927559 
	C35.053692,48.046169 34.986797,47.566273 34.976456,47.324226 
z"/>
<path fill="#818077" opacity="1.000000" stroke="none" 
	d="
M34.685619,45.886253 
	C34.849033,45.942581 34.871410,46.152550 34.906982,46.678642 
	C34.794975,46.676476 34.669777,46.358185 34.685619,45.886253 
z"/>
<path fill="#A2A093" opacity="1.000000" stroke="none" 
	d="
M35.985649,44.914513 
	C35.985649,44.914513 35.617226,44.818504 35.433708,44.776894 
	C34.920971,43.670124 34.591751,42.604961 34.136669,41.222389 
	C34.793659,41.211357 35.576511,41.517731 36.799553,42.133614 
	C37.427410,42.681736 37.645927,42.887619 37.772842,43.295082 
	C37.381649,43.981750 37.112896,44.434101 36.629890,44.904800 
	C36.415634,44.923145 35.985649,44.914513 35.985649,44.914513 
z"/>
<path fill="#918F83" opacity="1.000000" stroke="none" 
	d="
M37.810730,39.861141 
	C38.263653,38.887901 38.594448,38.250877 38.939369,37.299644 
	C39.419678,37.022594 39.885860,37.059750 40.693680,37.378586 
	C41.037922,37.982437 41.047291,38.304413 41.044853,38.712215 
	C41.026272,38.798244 41.025318,38.967457 40.794937,39.115101 
	C40.363075,39.567310 40.161598,39.871876 39.955948,40.252335 
	C39.951778,40.328224 39.996368,40.473553 39.795212,40.707809 
	C39.434914,41.316574 39.275776,41.691078 38.919151,42.167656 
	C38.721672,42.269722 38.323502,42.467533 38.138000,42.248993 
	C37.819340,41.893383 37.686180,41.756313 37.553024,41.619244 
	C37.598217,41.145283 37.643406,40.671318 37.810730,39.861141 
z"/>
<path fill="#848178" opacity="1.000000" stroke="none" 
	d="
M37.895287,43.060768 
	C37.645927,42.887619 37.427410,42.681736 37.115162,42.254944 
	C36.990585,42.066772 37.225449,41.783276 37.389236,41.701260 
	C37.686180,41.756313 37.819340,41.893383 38.055771,42.414684 
	C38.159035,42.798916 37.895287,43.060768 37.895287,43.060768 
z"/>
<path fill="#939085" opacity="1.000000" stroke="none" 
	d="
M41.063435,38.626186 
	C41.047291,38.304413 41.037922,37.982437 41.041782,37.422607 
	C41.029694,36.400562 41.011150,35.616177 40.963989,34.444946 
	C40.935379,34.058105 40.963707,34.034260 41.317581,34.031929 
	C42.124825,34.022259 42.578190,34.014927 43.031563,34.007595 
	C42.959961,34.688465 42.888363,35.369331 42.957664,36.282219 
	C43.104298,36.821552 43.097668,37.128609 42.823639,37.784241 
	C42.066875,38.297451 41.565155,38.461819 41.063435,38.626186 
z"/>
<path fill="#75655B" opacity="1.000000" stroke="none" 
	d="
M43.008839,34.002987 
	C42.578190,34.014927 42.124825,34.022259 41.331429,34.021439 
	C41.008659,33.547726 41.025917,33.082161 41.052742,32.265743 
	C41.292660,31.679516 41.524937,31.446062 41.929329,31.034115 
	C42.099514,30.853703 42.581360,30.848858 42.821438,30.828259 
	C43.251621,31.174456 43.441723,31.541256 43.483837,32.581799 
	C43.219830,33.518227 43.103806,33.780914 42.987778,34.043602 
	C42.987778,34.043602 42.986118,33.998379 43.008839,34.002987 
z"/>
<path fill="#928B80" opacity="1.000000" stroke="none" 
	d="
M43.227463,33.864361 
	C43.103806,33.780914 43.219830,33.518227 43.557129,32.883156 
	C43.778408,32.510765 43.768806,32.555214 43.782761,32.554955 
	C43.686859,32.931499 43.577003,33.308311 43.227463,33.864361 
z"/>
<path fill="#256640" opacity="1.000000" stroke="none" 
	d="
M37.772842,43.295082 
	C37.895287,43.060768 38.159035,42.798916 38.241268,42.633224 
	C38.323502,42.467533 38.721672,42.269722 39.225060,42.081909 
	C39.923439,41.810913 40.118431,41.727730 40.521591,41.814133 
	C40.921444,42.284809 41.113129,42.585911 41.224876,43.192177 
	C41.768883,43.941544 42.392822,44.385738 43.289013,44.956589 
	C44.066727,45.407387 44.572182,45.731533 45.077641,46.055676 
	C45.077641,46.055676 44.879936,46.498329 44.506760,46.795708 
	C43.804409,48.080402 43.475231,49.067722 43.146057,50.055038 
	C42.667412,50.641514 42.188770,51.227989 41.428040,51.845493 
	C41.049889,51.594551 40.890057,51.355194 40.478340,51.054558 
	C40.027470,50.477859 39.764713,50.005051 39.254814,49.430405 
	C38.777836,48.757778 38.548004,48.186996 38.172424,47.348938 
	C37.989986,46.780033 37.886124,46.503651 37.420460,45.831139 
	C37.031933,45.235317 36.938038,45.060886 36.844143,44.886456 
	C37.112896,44.434101 37.381649,43.981750 37.772842,43.295082 
z"/>
<path fill="#749377" opacity="1.000000" stroke="none" 
	d="
M45.056076,46.053238 
	C44.572182,45.731533 44.066727,45.407387 43.223450,44.687622 
	C42.358692,43.823669 41.831753,43.355339 41.304810,42.887009 
	C41.113129,42.585911 40.921444,42.284809 40.441452,41.523136 
	C40.100887,40.866222 40.048626,40.669888 39.996368,40.473553 
	C39.996368,40.473553 39.951778,40.328224 40.175274,40.087509 
	C40.607616,39.553684 40.816467,39.260571 41.025318,38.967457 
	C41.025318,38.967457 41.026272,38.798244 41.044853,38.712215 
	C41.565155,38.461819 42.066875,38.297451 42.810856,38.017258 
	C44.248634,39.146458 45.444157,40.391483 46.910011,41.849770 
	C47.094723,42.490864 47.009094,42.918694 46.621586,43.589890 
	C45.902420,44.576591 45.485138,45.319927 45.067856,46.063263 
	C45.067856,46.063263 45.034512,46.050800 45.056076,46.053238 
z"/>
<path fill="#3B714C" opacity="1.000000" stroke="none" 
	d="
M43.413605,49.905010 
	C43.475231,49.067722 43.804409,48.080402 44.421707,47.022694 
	C44.366936,47.886528 44.024040,48.820755 43.413605,49.905010 
z"/>
<path fill="#658A6C" opacity="1.000000" stroke="none" 
	d="
M45.331284,45.949158 
	C45.485138,45.319927 45.902420,44.576591 46.558693,43.911011 
	C46.396694,44.604191 45.995705,45.219620 45.331284,45.949158 
z"/>
<path fill="#625F59" opacity="1.000000" stroke="none" 
	d="
M48.950115,40.280045 
	C49.183514,39.806870 49.329472,39.684883 49.759247,39.591530 
	C49.891739,40.358974 49.740414,41.097790 49.219322,41.955078 
	C48.853928,41.592785 48.858299,41.112007 48.950115,40.280045 
z"/>
<path fill="#818077" opacity="1.000000" stroke="none" 
	d="
M36.629890,44.904800 
	C36.938038,45.060886 37.031933,45.235317 37.266212,45.671295 
	C37.196579,45.996861 36.986565,46.060886 36.457642,46.205402 
	C36.108997,46.058144 36.079258,45.830391 36.017586,45.258575 
	C35.985649,44.914513 36.415634,44.923145 36.629890,44.904800 
z"/>
<path fill="#476D51" opacity="1.000000" stroke="none" 
	d="
M39.795212,40.707809 
	C40.048626,40.669888 40.100887,40.866222 40.233284,41.353554 
	C40.118431,41.727730 39.923439,41.810913 39.422539,41.979843 
	C39.275776,41.691078 39.434914,41.316574 39.795212,40.707809 
z"/>
<path fill="#476D51" opacity="1.000000" stroke="none" 
	d="
M40.794937,39.115101 
	C40.816467,39.260571 40.607616,39.553684 40.179443,40.011620 
	C40.161598,39.871876 40.363075,39.567310 40.794937,39.115101 
z"/>
<path fill="#568A65" opacity="1.000000" stroke="none" 
	d="
M41.224876,43.192177 
	C41.831753,43.355339 42.358692,43.823669 42.951195,44.560966 
	C42.392822,44.385738 41.768883,43.941544 41.224876,43.192177 
z"/>
</svg>