<svg version="1.1" id="Layer_1" xmlns="http://www.w3.org/2000/svg" xmlns:xlink="http://www.w3.org/1999/xlink" x="0px" y="0px"
	 width="100%" viewBox="0 0 120 120" enable-background="new 0 0 120 120" xml:space="preserve">
<path fill="#000000" opacity="1.000000" stroke="none" 
	d="
M72.000000,121.000000 
	C48.360458,121.000000 24.720917,121.000000 1.040688,121.000000 
	C1.040688,81.073006 1.040688,41.145958 1.040688,1.109456 
	C40.880917,1.109456 80.762238,1.109456 121.000000,1.109456 
	C121.000000,24.353018 121.000000,47.707851 120.741844,71.805717 
	C119.987480,72.036911 119.491264,71.525070 118.985756,70.651321 
	C118.063255,68.765465 117.311859,67.111565 116.209724,65.739365 
	C110.488106,58.615734 104.736740,51.513252 98.823486,44.549667 
	C98.061806,43.652687 96.299179,43.605682 94.576416,43.089752 
	C92.435013,43.065605 90.717415,43.116646 88.636253,43.092339 
	C87.158974,43.973400 86.045242,44.929806 84.603348,46.032223 
	C81.617882,47.452377 78.878151,48.585732 76.343643,50.069618 
	C75.322662,50.667370 74.751305,52.033077 73.902374,53.149017 
	C73.829437,53.248756 73.982750,53.443363 73.743446,53.711212 
	C72.928726,54.969543 72.353302,55.960026 71.562454,56.996956 
	C71.068764,57.212639 70.932617,57.460075 70.627106,57.957130 
	C69.933929,59.398510 69.552261,60.668472 69.095215,62.263988 
	C68.644951,63.370117 68.270058,64.150696 67.658348,65.001358 
	C67.126503,65.262932 66.946831,65.531609 66.590286,66.048279 
	C66.138107,67.098282 65.978134,67.977455 65.516052,68.850876 
	C64.815048,68.891403 64.416168,68.937691 63.758247,68.994461 
	C63.321423,69.282021 63.143635,69.559082 62.687569,69.964043 
	C61.955215,70.723076 61.501148,71.354218 60.940140,72.226944 
	C60.534256,72.887611 60.235306,73.306679 59.643875,73.921745 
	C59.305035,75.021698 59.258675,75.925659 59.346382,77.298721 
	C59.729069,77.977531 59.977688,78.187233 60.022247,78.740112 
	C59.690636,79.316902 59.563087,79.550529 59.121773,79.504242 
	C58.528763,79.199730 58.249523,79.175133 57.688049,79.083679 
	C56.785465,79.378983 56.165115,79.741150 55.539642,80.115494 
	C55.534519,80.127678 55.509441,80.114594 55.195778,80.385666 
	C54.652164,83.347916 54.422215,86.039078 54.175690,89.090454 
	C56.122089,92.797348 58.110958,96.129158 60.042301,99.494003 
	C63.383400,105.314972 66.688820,111.156418 70.083382,117.222794 
	C70.157555,117.456306 70.273102,117.932510 70.209137,118.195778 
	C70.445412,118.584908 70.745651,118.710777 71.397354,119.026031 
	C71.832535,119.810287 71.916267,120.405144 72.000000,121.000000 
M24.995642,24.958769 
	C24.995642,24.958769 24.947412,24.948269 24.425537,25.100626 
	C24.216658,25.813154 24.007778,26.525681 23.409023,27.629213 
	C22.583986,29.408493 21.758949,31.187773 20.533241,33.211151 
	C20.281925,33.411259 20.097063,33.660633 19.444630,34.397274 
	C18.683979,36.577179 17.923330,38.757088 16.788725,41.514275 
	C15.820052,43.298920 14.851381,45.083561 13.430440,47.266640 
	C13.306830,47.842274 13.183221,48.417912 12.985860,49.379150 
	C12.985860,49.379150 12.963740,49.771114 12.562337,50.078915 
	C12.406525,50.368221 12.250711,50.657528 12.080213,51.504951 
	C12.097366,51.690266 12.114519,51.875576 11.778028,52.662418 
	C10.175899,55.804443 8.573771,58.946472 6.343637,62.357536 
	C5.435806,64.120865 4.611479,65.933655 3.602515,67.637077 
	C1.588151,71.037926 2.362229,73.490028 5.959230,75.759331 
	C5.999955,76.182480 6.040680,76.605621 5.930635,77.775764 
	C4.239872,81.390228 5.157888,84.524895 8.373587,86.479828 
	C8.740661,86.702988 11.522578,82.953934 13.552187,80.852760 
	C13.781391,80.682686 13.947172,80.464432 14.585932,79.815948 
	C15.095163,78.884727 15.604394,77.953506 16.588423,76.793762 
	C17.078026,76.296494 17.567627,75.799232 18.589504,75.674736 
	C19.763842,80.417221 20.938177,85.159714 22.093008,90.511238 
	C22.107531,90.713837 22.122053,90.916428 22.119328,91.633003 
	C22.386534,92.026695 22.653740,92.420387 23.554094,93.011955 
	C24.071436,93.665344 24.588779,94.318741 25.316273,95.651672 
	C26.504786,101.511421 30.500584,103.709023 36.785061,103.860565 
	C44.251652,101.418709 45.117321,100.176338 45.672752,91.730331 
	C50.170612,89.780632 49.757561,86.556000 48.037750,82.203293 
	C47.746750,78.164330 47.455750,74.125374 47.779522,69.605377 
	C48.191460,66.770546 48.603394,63.935715 49.707630,60.665257 
	C50.223328,53.112194 50.739029,45.559128 51.948059,37.999279 
	C52.993828,36.045593 54.039597,34.091911 55.668678,31.581636 
	C55.388901,27.251852 55.173496,22.915817 54.754559,18.599541 
	C54.696865,18.005152 53.629475,17.508766 53.249649,16.292717 
	C53.489880,12.145377 53.175751,8.222702 48.570801,5.271012 
	C41.717552,2.334851 37.325947,3.041668 32.276684,8.148212 
	C32.145897,9.138715 32.015106,10.129217 31.545462,11.692963 
	C28.201010,14.430740 25.500294,17.522863 25.853603,22.484720 
	C25.853603,22.484720 25.947205,22.742212 25.471661,23.172895 
	C25.298491,23.775805 25.125320,24.378712 24.995642,24.958769 
z"/>
<path fill="#000000" opacity="1.000000" stroke="none" 
	d="
M121.000000,77.000000 
	C121.000000,91.595795 121.000000,106.191589 121.000000,121.000000 
	C105.646423,121.000000 90.291870,121.000000 74.131592,120.706390 
	C74.561188,119.721756 75.719414,118.752518 77.044464,118.385345 
	C85.011345,116.177704 93.027893,114.149384 100.995956,111.945847 
	C102.124229,111.633820 103.078865,110.693932 104.524689,110.025681 
	C109.208923,108.662827 113.482330,107.318954 117.871216,105.547470 
	C118.332413,96.547035 118.626457,87.971329 119.105659,79.405991 
	C119.152359,78.571274 120.341278,77.800468 121.000000,77.000000 
z"/>
<path fill="#C6C2B8" opacity="1.000000" stroke="none" 
	d="
M121.000000,76.583336 
	C120.341278,77.800468 119.152359,78.571274 119.105659,79.405991 
	C118.626457,87.971329 118.332413,96.547035 117.436935,105.550041 
	C114.257713,105.992310 111.628265,106.004372 108.841370,105.645401 
	C107.053680,99.731293 108.506310,94.974213 111.921135,90.421654 
	C117.059357,83.571503 115.686905,76.626862 109.242622,73.696793 
	C112.674522,72.632484 115.834785,71.822853 118.995056,71.013229 
	C119.491264,71.525070 119.987480,72.036911 120.741844,72.274376 
	C121.000000,73.388893 121.000000,74.777779 121.000000,76.583336 
z"/>
<path fill="#B0ADA6" opacity="1.000000" stroke="none" 
	d="
M104.113869,110.044647 
	C103.078865,110.693932 102.124229,111.633820 100.995956,111.945847 
	C93.027893,114.149384 85.011345,116.177704 77.044464,118.385345 
	C75.719414,118.752518 74.561188,119.721756 73.662933,120.706390 
	C73.555557,121.000000 73.111107,121.000000 72.333328,121.000000 
	C71.916267,120.405144 71.832535,119.810287 71.314156,118.837936 
	C70.753326,118.197220 70.551193,118.021248 70.273102,117.932510 
	C70.273102,117.932510 70.157555,117.456306 70.192093,117.006592 
	C70.226624,116.556870 70.377785,116.097092 70.625763,116.033470 
	C71.256012,115.643570 71.638283,115.317291 72.432602,114.968918 
	C76.443146,114.405167 80.044952,113.884384 83.639458,113.317368 
	C90.466469,112.240440 97.289299,111.137047 104.113869,110.044647 
z"/>
<path fill="#3E2C23" opacity="1.000000" stroke="none" 
	d="
M22.136578,91.119026 
	C22.122053,90.916428 22.107531,90.713837 22.319160,89.906784 
	C25.315971,82.874908 22.069302,77.385201 19.051805,71.530533 
	C18.720280,72.787682 18.388754,74.044823 18.057228,75.301964 
	C17.567627,75.799232 17.078026,76.296494 16.008385,76.999313 
	C14.968741,78.202576 14.509136,79.200287 14.049530,80.198006 
	C13.947172,80.464432 13.781391,80.682686 12.970067,80.934364 
	C11.173328,80.865097 9.958710,80.714226 8.586134,80.543732 
	C8.741130,78.812485 8.866625,77.410751 9.343567,75.937302 
	C10.792335,73.916527 11.889653,71.967476 13.314915,69.859207 
	C14.862953,69.178284 16.169039,68.793999 17.280483,68.098618 
	C18.551891,67.303146 19.650293,66.231171 20.823868,65.279343 
	C19.745560,64.384583 18.667248,63.489819 17.588938,62.595055 
	C18.068649,62.551682 18.548359,62.508312 19.028070,62.464939 
	C18.685431,58.309959 18.342793,54.154980 18.390017,50.003063 
	C22.853237,51.338127 26.926592,52.670132 30.946449,54.341999 
	C30.599062,55.787579 30.305174,56.893299 29.806662,58.244026 
	C30.036993,59.356911 30.272551,60.756119 30.939295,61.006329 
	C35.236046,62.618790 35.933487,65.644424 35.149204,69.744598 
	C34.285591,74.259529 33.687916,78.836029 33.201675,83.409874 
	C32.516205,89.857819 34.624779,95.618912 37.798313,101.205109 
	C37.071587,101.608253 36.543419,101.805740 35.674873,101.878632 
	C33.402966,97.264412 31.991791,91.989990 25.106121,94.972130 
	C24.588779,94.318741 24.071436,93.665344 23.209579,92.673332 
	C22.622234,91.929482 22.379404,91.524254 22.136578,91.119026 
z"/>
<path fill="#483327" opacity="1.000000" stroke="none" 
	d="
M30.011284,57.999016 
	C30.305174,56.893299 30.599062,55.787579 31.094696,54.010281 
	C31.521090,51.914917 31.745739,50.491135 32.220806,48.842865 
	C33.965012,46.424541 35.458801,44.230701 37.155483,41.893570 
	C37.615417,41.536919 37.829830,41.287003 38.300232,40.915794 
	C38.399635,39.887150 38.200428,38.943241 37.998833,37.641304 
	C37.665268,36.189228 37.334091,35.095188 37.082954,33.686996 
	C37.772003,32.246246 38.381016,31.119650 39.130535,29.800741 
	C39.480991,29.366289 39.723286,29.162638 40.206974,29.214359 
	C41.055843,30.047283 41.695667,30.663319 42.335491,31.279354 
	C42.748699,30.623819 43.659264,29.624304 43.486279,29.374182 
	C42.845757,28.448050 41.847755,27.769154 40.983711,26.609142 
	C41.015339,21.980167 39.320831,19.753780 34.722271,20.682629 
	C31.745960,21.283802 28.736958,21.723127 25.742603,22.234978 
	C25.500294,17.522863 28.201010,14.430740 31.986710,11.360514 
	C32.609661,11.001100 32.791363,10.974135 33.126438,11.263231 
	C35.543198,13.037431 37.806587,14.495570 40.042019,15.976120 
	C40.014065,15.998530 40.040272,15.931853 40.145927,16.281469 
	C41.828438,17.087170 43.405293,17.543253 45.285316,18.210033 
	C46.071705,20.312984 46.554924,22.205240 47.034737,24.344749 
	C47.394157,25.062746 47.756981,25.533487 48.436623,26.002808 
	C49.176128,25.997131 49.598820,25.992874 50.380028,25.985846 
	C51.453049,25.973425 52.167553,25.963778 53.043610,26.270235 
	C53.428547,27.725817 53.651939,28.865292 53.495232,30.012640 
	C49.414696,30.003815 50.113277,32.756954 49.910484,35.033012 
	C49.834934,35.075920 49.825371,35.282902 49.825371,35.282902 
	C49.825371,35.282902 50.009933,35.013828 50.348534,34.990601 
	C51.778339,33.985920 52.869545,33.004463 54.241905,32.051807 
	C54.710491,32.099815 54.897930,32.119019 55.085365,32.138226 
	C54.039597,34.091911 52.993828,36.045593 51.375793,37.829330 
	C50.009125,37.925838 49.214729,38.192295 48.110435,38.588467 
	C41.532413,41.552483 41.865200,47.573910 40.691139,53.176056 
	C40.213787,53.919346 39.961502,54.463036 39.362396,55.029301 
	C36.014141,56.034256 33.012711,57.016632 30.011284,57.999016 
z"/>
<path fill="#DEDDD4" opacity="1.000000" stroke="none" 
	d="
M118.985756,70.651321 
	C115.834785,71.822853 112.674522,72.632484 108.824226,73.706238 
	C106.455124,74.021416 104.776047,74.072464 102.879044,73.885796 
	C102.459755,72.855263 102.258377,72.062439 102.290070,71.199020 
	C102.523140,71.128418 102.987938,70.982887 103.341866,70.997063 
	C104.777130,70.668388 105.858467,70.325531 107.238815,69.800735 
	C109.634392,66.379341 109.563484,65.727966 106.608696,64.948654 
	C104.788368,64.978523 103.387924,65.000290 101.638062,64.973267 
	C99.166565,63.604340 97.044487,62.284203 94.566635,60.999947 
	C93.514977,62.091755 92.819092,63.147678 92.119408,64.408173 
	C92.115608,64.612740 92.046486,65.016060 91.721848,65.020523 
	C90.338661,65.637077 89.280106,66.249176 87.931519,66.711838 
	C86.447365,64.995842 85.253250,63.429283 84.084000,61.550934 
	C84.090294,60.822563 84.071716,60.405983 84.249435,59.785744 
	C84.630341,59.053978 84.814957,58.525879 85.280579,57.956635 
	C86.050972,57.649368 86.540367,57.383251 87.402924,57.110817 
	C88.523186,57.090176 89.270271,57.075851 90.251244,57.272118 
	C91.302055,57.643406 92.118988,57.804104 93.250023,57.832153 
	C94.545830,56.395374 95.527534,55.091251 96.509232,53.787125 
	C95.334229,53.193443 94.159218,52.599766 92.699234,51.787354 
	C91.224121,51.449978 90.033997,51.331337 88.612137,51.061901 
	C87.926926,50.600105 87.473442,50.289104 86.952469,49.653774 
	C86.233826,48.181702 85.582672,47.033958 84.931519,45.886215 
	C86.045242,44.929806 87.158974,43.973400 88.770325,43.410942 
	C91.396790,45.545040 93.357384,45.778107 95.000221,43.164940 
	C96.299179,43.605682 98.061806,43.652687 98.823486,44.549667 
	C104.736740,51.513252 110.488106,58.615734 116.209724,65.739365 
	C117.311859,67.111565 118.063255,68.765465 118.985756,70.651321 
z"/>
<path fill="#3A251C" opacity="1.000000" stroke="none" 
	d="
M39.997932,28.997475 
	C39.723286,29.162638 39.480991,29.366289 38.771675,29.865519 
	C34.177467,32.755955 30.082626,35.389301 25.632641,38.003639 
	C24.183084,36.993050 23.088675,36.001469 22.159952,34.810291 
	C21.861731,34.062813 21.397821,33.514935 20.933912,32.967052 
	C21.758949,31.187773 22.583986,29.408493 23.855072,27.211224 
	C24.516554,26.178244 24.731983,25.563257 24.947412,24.948269 
	C24.947412,24.948269 24.995642,24.958769 25.208282,24.755188 
	C25.596350,23.948475 25.771778,23.345343 25.947205,22.742212 
	C25.947205,22.742212 25.853603,22.484720 25.798103,22.359848 
	C28.736958,21.723127 31.745960,21.283802 34.722271,20.682629 
	C39.320831,19.753780 41.015339,21.980167 40.780121,26.810966 
	C40.383907,27.933161 40.190922,28.465319 39.997932,28.997475 
z"/>
<path fill="#9F9C91" opacity="1.000000" stroke="none" 
	d="
M72.020554,114.991013 
	C71.638283,115.317291 71.256012,115.643570 70.485016,115.670242 
	C68.405853,111.579185 66.715424,107.787743 65.184021,103.800613 
	C64.905899,103.063232 64.468742,102.521530 63.826687,101.780640 
	C63.427307,101.052299 63.232819,100.523163 63.216660,99.763000 
	C62.619373,98.342796 61.843765,97.153618 61.050301,95.725327 
	C61.032448,95.486221 60.991768,95.008400 60.980778,94.646782 
	C59.983772,92.854492 58.997757,91.423828 57.731400,89.759377 
	C56.364792,89.260483 55.278526,88.995361 54.192265,88.730247 
	C54.422215,86.039078 54.652164,83.347916 55.315388,80.766876 
	C56.780052,81.928062 57.811436,82.979118 58.896526,84.385231 
	C61.217056,87.207375 63.483883,89.674454 65.791985,92.435760 
	C65.868317,93.124832 65.903374,93.519684 65.766083,93.908890 
	C65.593742,93.903229 65.251389,93.944817 65.038818,93.977036 
	C64.736839,94.116432 64.549904,94.267334 64.574951,94.323219 
	C64.682693,94.563606 64.852707,94.776077 65.234589,95.018814 
	C65.469131,95.038910 65.938133,95.080116 65.939232,95.405350 
	C65.972466,96.162956 66.004608,96.595322 66.168808,97.301804 
	C66.870216,97.737442 67.439568,97.898956 68.005569,98.301018 
	C68.002220,98.541557 68.021187,99.022331 68.149918,99.312317 
	C68.574936,100.387215 68.871216,101.172142 69.015030,102.170143 
	C69.936264,104.012680 71.009979,105.642128 72.067490,107.697739 
	C72.041054,110.412941 72.030800,112.701973 72.020554,114.991013 
z"/>
<path fill="#3A261D" opacity="1.000000" stroke="none" 
	d="
M31.970387,49.067352 
	C31.745739,50.491135 31.521090,51.914917 31.148193,53.670418 
	C26.926592,52.670132 22.853237,51.338127 18.104946,49.872566 
	C16.638180,49.489460 15.846345,49.239906 14.990759,48.684978 
	C14.578909,47.875801 14.230809,47.372005 13.882710,46.868206 
	C14.851381,45.083561 15.820052,43.298920 17.363213,41.241905 
	C21.299585,42.305702 24.661469,43.641872 28.232643,45.215187 
	C29.618088,46.657341 30.794237,47.862347 31.970387,49.067352 
z"/>
<path fill="#716C5C" opacity="1.000000" stroke="none" 
	d="
M47.164749,70.086411 
	C47.455750,74.125374 47.746750,78.164330 47.720112,82.483932 
	C46.246788,82.432510 45.091106,82.100449 43.607414,81.864922 
	C42.206268,82.300987 41.133121,82.640511 40.016891,82.568375 
	C40.137016,75.804146 40.300232,69.451576 40.892399,63.082306 
	C47.164116,62.164097 45.046593,67.887932 47.164749,70.086411 
z"/>
<path fill="#777462" opacity="1.000000" stroke="none" 
	d="
M47.472137,69.845894 
	C45.046593,67.887932 47.164116,62.164097 40.885384,62.734947 
	C40.202686,59.938431 39.955952,57.472580 39.709221,55.006725 
	C39.961502,54.463036 40.213787,53.919346 41.041317,53.171291 
	C45.152275,53.686134 46.846485,50.984283 48.956505,49.484913 
	C48.986950,53.663708 49.001141,57.382298 49.015327,61.100883 
	C48.603394,63.935715 48.191460,66.770546 47.472137,69.845894 
z"/>
<path fill="#433129" opacity="1.000000" stroke="none" 
	d="
M15.054510,48.990356 
	C15.846345,49.239906 16.638180,49.489460 17.715084,49.869507 
	C18.342793,54.154980 18.685431,58.309959 19.028070,62.464939 
	C18.548359,62.508312 18.068649,62.551682 17.588938,62.595055 
	C18.667248,63.489819 19.745560,64.384583 20.823868,65.279343 
	C19.650293,66.231171 18.551891,67.303146 17.280483,68.098618 
	C16.169039,68.793999 14.862953,69.178284 13.069448,69.855469 
	C12.496042,70.010925 12.004787,70.004219 11.953211,69.670738 
	C12.197050,68.244423 12.457891,67.140709 12.797245,66.061691 
	C13.164246,64.894753 13.885409,63.766979 13.952705,62.593487 
	C14.081205,60.352779 14.029246,58.066784 13.710744,55.848614 
	C13.522484,54.537491 12.679975,53.320312 12.131674,52.060886 
	C12.114519,51.875576 12.097366,51.690266 12.274824,51.065571 
	C12.693516,50.375469 12.858284,50.090443 12.963740,49.771114 
	C12.963740,49.771114 12.985860,49.379150 13.354630,49.191551 
	C14.167103,48.999420 14.610806,48.994888 15.054510,48.990356 
z"/>
<path fill="#71533D" opacity="1.000000" stroke="none" 
	d="
M32.796757,7.809804 
	C37.325947,3.041668 41.717552,2.334851 48.913174,5.875794 
	C49.380032,7.259510 49.830593,8.584402 49.579453,8.734397 
	C46.470783,10.591045 43.259869,12.276504 39.774193,13.834604 
	C37.415825,11.879815 35.358562,10.096489 33.175362,8.187126 
	C33.049419,8.061089 32.796757,7.809804 32.796757,7.809804 
z"/>
<path fill="#99978B" opacity="1.000000" stroke="none" 
	d="
M58.842823,84.030174 
	C57.811436,82.979118 56.780052,81.928062 55.629051,80.495804 
	C55.509441,80.114594 55.534519,80.127678 55.917393,80.329147 
	C56.855965,80.682739 57.411667,80.834862 58.123627,81.149323 
	C58.665108,80.802490 59.050327,80.293327 59.435547,79.784157 
	C59.563087,79.550529 59.690636,79.316902 60.275246,78.681221 
	C61.201790,77.514778 61.671272,76.750397 62.431847,75.933029 
	C63.178627,75.525826 63.634312,75.171593 64.407166,74.946304 
	C65.847733,76.033020 66.971115,76.990807 68.653412,78.425110 
	C69.223343,75.381340 69.629265,73.213478 70.302185,71.135864 
	C71.163803,71.273811 71.758415,71.321510 72.353020,71.369202 
	C72.226402,70.609314 72.099785,69.849419 71.993774,68.785782 
	C72.031548,68.279793 72.048714,68.077553 72.328583,68.022385 
	C73.340256,68.360611 74.089218,68.551773 75.040825,68.981499 
	C75.796799,69.472420 76.350121,69.724792 76.790359,70.255623 
	C76.450996,71.293373 76.224724,72.052650 75.661728,72.904572 
	C73.199226,75.651779 71.073441,78.306328 68.624878,81.015671 
	C64.834190,81.050858 61.194637,80.482712 58.842823,84.030174 
z"/>
<path fill="#C5C2B5" opacity="1.000000" stroke="none" 
	d="
M87.029755,57.117130 
	C86.540367,57.383251 86.050972,57.649368 85.080704,57.792908 
	C84.417595,58.443356 84.235367,59.216381 84.053146,59.989407 
	C84.071716,60.405983 84.090294,60.822563 83.767670,61.492085 
	C82.615662,61.524498 81.804848,61.303963 81.017372,60.770000 
	C80.843468,59.876228 80.646210,59.295879 80.374832,58.514370 
	C80.300705,58.313210 80.104652,57.931889 79.974480,57.661140 
	C79.288162,57.242687 78.732010,57.094978 78.116211,56.614449 
	C77.680099,55.239071 77.303642,54.196514 76.900146,52.901024 
	C76.288879,52.952496 75.704636,53.256905 74.772766,53.570515 
	C74.275208,53.402905 74.125259,53.226093 73.975319,53.049282 
	C74.751305,52.033077 75.322662,50.667370 76.343643,50.069618 
	C78.878151,48.585732 81.617882,47.452377 84.603348,46.032223 
	C85.582672,47.033958 86.233826,48.181702 86.604721,49.725357 
	C81.896393,53.175266 81.960396,53.810127 87.029755,57.117130 
z"/>
<path fill="#493931" opacity="1.000000" stroke="none" 
	d="
M11.954851,52.361652 
	C12.679975,53.320312 13.522484,54.537491 13.710744,55.848614 
	C14.029246,58.066784 14.081205,60.352779 13.952705,62.593487 
	C13.885409,63.766979 13.164246,64.894753 12.797245,66.061691 
	C12.457891,67.140709 12.197050,68.244423 11.701864,69.671539 
	C11.334580,70.003883 11.167066,70.001945 10.768600,69.749619 
	C9.348982,67.028992 8.160312,64.558746 6.971642,62.088497 
	C8.573771,58.946472 10.175899,55.804443 11.954851,52.361652 
z"/>
<path fill="#775C49" opacity="1.000000" stroke="none" 
	d="
M40.075298,14.006068 
	C43.259869,12.276504 46.470783,10.591045 49.579453,8.734397 
	C49.830593,8.584402 49.380032,7.259510 49.137924,6.168686 
	C53.175751,8.222702 53.489880,12.145377 53.026211,16.820093 
	C52.634964,17.593451 52.434643,17.809248 51.992393,17.703703 
	C49.921822,14.932781 47.696571,14.253835 44.562767,16.037886 
	C42.781273,16.003925 41.410774,15.967890 40.040272,15.931853 
	C40.040272,15.931853 40.014065,15.998530 40.027817,15.651805 
	C40.052814,14.872076 40.064056,14.439072 40.075298,14.006068 
z"/>
<path fill="#523525" opacity="1.000000" stroke="none" 
	d="
M28.023350,44.978043 
	C24.661469,43.641872 21.299585,42.305702 17.550192,40.953262 
	C17.923330,38.757088 18.683979,36.577179 19.911030,34.393578 
	C20.916374,34.596554 21.455320,34.803223 21.994267,35.009888 
	C23.088675,36.001469 24.183084,36.993050 25.828047,38.291805 
	C28.582706,39.403458 30.786814,40.207932 32.994587,41.257164 
	C32.998253,41.501923 33.001373,41.991806 32.838989,42.255318 
	C31.125519,43.338566 29.574434,44.158302 28.023350,44.978043 
z"/>
<path fill="#4B362C" opacity="1.000000" stroke="none" 
	d="
M36.015251,102.003220 
	C36.543419,101.805740 37.071587,101.608253 37.799351,100.794327 
	C37.890980,97.758011 37.783012,95.338127 37.691578,93.288857 
	C40.428356,92.786934 42.715897,92.367401 45.014805,91.971619 
	C45.026173,91.995377 45.016521,92.047150 45.016521,92.047150 
	C45.117321,100.176338 44.251652,101.418709 36.403893,103.558228 
	C36.020233,102.838326 36.017742,102.420776 36.015251,102.003220 
z"/>
<path fill="#7F7A73" opacity="1.000000" stroke="none" 
	d="
M60.991768,95.008400 
	C60.991768,95.008400 61.032448,95.486221 61.078888,96.056427 
	C61.762997,97.749092 62.400665,98.871559 63.038330,99.994019 
	C63.232819,100.523163 63.427307,101.052299 63.866135,102.069275 
	C64.415314,103.036835 64.720146,103.516563 65.024986,103.996292 
	C66.715424,107.787743 68.405853,111.579185 70.237038,115.733864 
	C70.377785,116.097092 70.226624,116.556870 70.117920,116.773071 
	C66.688820,111.156418 63.383400,105.314972 60.042301,99.494003 
	C58.110958,96.129158 56.122089,92.797348 54.175690,89.090454 
	C55.278526,88.995361 56.364792,89.260483 57.778290,90.096313 
	C59.067612,92.114151 60.029690,93.561279 60.991768,95.008400 
z"/>
<path fill="#342921" opacity="1.000000" stroke="none" 
	d="
M35.674877,101.878632 
	C36.017742,102.420776 36.020233,102.838326 36.036388,103.567856 
	C30.500584,103.709023 26.504786,101.511421 25.211197,95.311905 
	C31.991791,91.989990 33.402966,97.264412 35.674877,101.878632 
z"/>
<path fill="#594D45" opacity="1.000000" stroke="none" 
	d="
M6.657640,62.223015 
	C8.160312,64.558746 9.348982,67.028992 10.587220,70.023506 
	C9.064368,72.073105 7.491948,73.598434 5.919528,75.123764 
	C2.362229,73.490028 1.588151,71.037926 3.602515,67.637077 
	C4.611479,65.933655 5.435806,64.120865 6.657640,62.223015 
z"/>
<path fill="#5C402F" opacity="1.000000" stroke="none" 
	d="
M43.935421,81.768387 
	C45.091106,82.100449 46.246788,82.432510 47.674927,82.866615 
	C49.757561,86.556000 50.170612,89.780632 45.344635,91.888741 
	C45.016521,92.047150 45.026173,91.995377 44.956421,91.641022 
	C43.933743,89.835808 42.980820,88.384949 42.091007,86.599121 
	C42.747887,84.765572 43.341652,83.266975 43.935421,81.768387 
z"/>
<path fill="#47372E" opacity="1.000000" stroke="none" 
	d="
M8.992119,76.009018 
	C8.866625,77.410751 8.741130,78.812485 8.586134,80.543732 
	C9.958710,80.714226 11.173328,80.865097 12.786369,81.031334 
	C11.522578,82.953934 8.740661,86.702988 8.373587,86.479828 
	C5.157888,84.524895 4.239872,81.390228 6.308136,77.339340 
	C7.454463,76.604950 8.223290,76.306984 8.992119,76.009018 
z"/>
<path fill="#493D35" opacity="1.000000" stroke="none" 
	d="
M18.323366,75.488350 
	C18.388754,74.044823 18.720280,72.787682 19.051805,71.530533 
	C22.069302,77.385201 25.315971,82.874908 22.328911,89.602264 
	C20.938177,85.159714 19.763842,80.417221 18.323366,75.488350 
z"/>
<path fill="#9D9B8F" opacity="1.000000" stroke="none" 
	d="
M49.361481,60.883072 
	C49.001141,57.382298 48.986950,53.663708 48.981293,49.018448 
	C48.799988,44.880768 48.610161,41.669758 48.420330,38.458748 
	C49.214729,38.192295 50.009125,37.925838 51.029125,37.832726 
	C50.739029,45.559128 50.223328,53.112194 49.361481,60.883072 
z"/>
<path fill="#44413C" opacity="1.000000" stroke="none" 
	d="
M70.035179,71.045624 
	C69.629265,73.213478 69.223343,75.381340 68.653412,78.425110 
	C66.971115,76.990807 65.847733,76.033020 64.378036,74.534149 
	C64.026909,72.323364 64.022095,70.653671 64.017281,68.983971 
	C64.416168,68.937691 64.815048,68.891403 65.553009,69.158981 
	C66.701324,70.076241 67.510559,70.679634 68.600815,71.216995 
	C69.266289,71.115852 69.650734,71.080734 70.035179,71.045624 
z"/>
<path fill="#6C5952" opacity="1.000000" stroke="none" 
	d="
M52.201809,17.994865 
	C52.434643,17.809248 52.634964,17.593451 52.916153,17.157238 
	C53.629475,17.508766 54.696865,18.005152 54.754559,18.599541 
	C55.173496,22.915817 55.388901,27.251852 55.377022,31.859932 
	C54.897930,32.119019 54.710491,32.099815 54.246876,31.714417 
	C53.938908,30.900406 53.907120,30.452587 53.875328,30.004766 
	C53.651939,28.865292 53.428547,27.725817 53.016457,25.878895 
	C52.619110,22.779255 52.410461,20.387060 52.201809,17.994865 
z"/>
<path fill="#342821" opacity="1.000000" stroke="none" 
	d="
M9.343567,75.937302 
	C8.223290,76.306984 7.454463,76.604950 6.383521,76.965843 
	C6.040680,76.605621 5.999955,76.182480 5.939379,75.441544 
	C7.491948,73.598434 9.064368,72.073105 10.818171,70.273888 
	C11.167066,70.001945 11.334580,70.003883 11.753442,70.005020 
	C12.004787,70.004219 12.496042,70.010925 12.741508,70.014671 
	C11.889653,71.967476 10.792335,73.916527 9.343567,75.937302 
z"/>
<path fill="#48614E" opacity="1.000000" stroke="none" 
	d="
M76.927177,53.153961 
	C77.303642,54.196514 77.680099,55.239071 77.847710,56.706108 
	C77.424400,57.430088 77.209938,57.729588 76.992409,58.010536 
	C76.989342,57.991985 77.026924,57.990562 76.814125,58.134621 
	C76.382401,58.726028 76.163467,59.173374 75.604881,59.591209 
	C74.819817,58.369850 74.374413,57.178001 74.089142,55.569061 
	C74.160439,54.582436 74.071594,54.012901 73.982750,53.443363 
	C73.982750,53.443363 73.829437,53.248756 73.902374,53.149017 
	C74.125259,53.226093 74.275208,53.402905 75.076981,53.517189 
	C76.128273,53.354431 76.527725,53.254196 76.927177,53.153961 
z"/>
<path fill="#8B887E" opacity="1.000000" stroke="none" 
	d="
M63.758247,68.994461 
	C64.022095,70.653671 64.026909,72.323364 64.060860,74.405212 
	C63.634312,75.171593 63.178627,75.525826 62.089172,75.917542 
	C61.001492,75.998596 60.547588,76.042168 60.093323,75.690315 
	C60.040764,74.771843 59.988560,74.248802 59.936356,73.725754 
	C60.235306,73.306679 60.534256,72.887611 61.263706,72.199402 
	C62.118088,71.232231 62.541969,70.534187 62.965851,69.836151 
	C63.143635,69.559082 63.321423,69.282021 63.758247,68.994461 
z"/>
<path fill="#9E9B92" opacity="1.000000" stroke="none" 
	d="
M73.929008,55.986153 
	C74.374413,57.178001 74.819817,58.369850 75.624527,60.080070 
	C75.991112,61.579922 75.998390,62.561398 75.668663,63.435959 
	C74.870964,63.230251 74.410263,63.131454 73.860733,62.751091 
	C73.598289,61.926029 73.424683,61.382534 73.062210,60.576839 
	C72.258743,60.226330 71.644135,60.138020 71.021774,59.671894 
	C70.988884,58.791290 70.963745,58.288506 70.938614,57.785717 
	C70.932617,57.460075 71.068764,57.212639 71.842812,56.903343 
	C72.868729,56.504242 73.398865,56.245197 73.929008,55.986153 
z"/>
<path fill="#DEDDD4" opacity="1.000000" stroke="none" 
	d="
M94.576416,43.089752 
	C93.357384,45.778107 91.396790,45.545040 89.133881,43.486290 
	C90.717415,43.116646 92.435013,43.065605 94.576416,43.089752 
z"/>
<path fill="#87857C" opacity="1.000000" stroke="none" 
	d="
M67.895164,64.931274 
	C68.270058,64.150696 68.644951,63.370117 69.279976,62.256073 
	C69.540108,61.922607 69.909660,61.907761 69.950821,62.262001 
	C70.730591,63.224686 71.469193,63.833126 72.197083,64.824425 
	C72.137169,65.457832 72.087975,65.708382 71.775040,66.142830 
	C71.230911,66.648392 70.950531,66.970055 70.553391,67.300735 
	C70.436646,67.309753 70.211220,67.373230 69.934502,67.270462 
	C69.473732,67.098038 69.289673,67.028381 69.032852,66.678383 
	C68.645256,65.925758 68.330421,65.453491 67.987503,64.963837 
	C67.959435,64.946449 67.895164,64.931274 67.895164,64.931274 
z"/>
<path fill="#7A7D72" opacity="1.000000" stroke="none" 
	d="
M68.319794,71.283035 
	C67.510559,70.679634 66.701324,70.076241 65.855125,69.164734 
	C65.978134,67.977455 66.138107,67.098282 66.617249,66.075928 
	C66.936424,65.932762 66.986588,65.991508 67.026306,66.319107 
	C67.353508,67.446388 67.640991,68.246078 67.962555,69.422394 
	C68.104347,70.293694 68.212067,70.788368 68.319794,71.283035 
z"/>
<path fill="#B5B5AD" opacity="1.000000" stroke="none" 
	d="
M69.909660,61.907761 
	C69.909660,61.907761 69.540108,61.922607 69.355347,61.930519 
	C69.552261,60.668472 69.933929,59.398510 70.627106,57.957130 
	C70.963745,58.288506 70.988884,58.791290 70.991432,59.907349 
	C70.968849,60.520618 70.985191,60.995457 70.993752,60.998947 
	C71.002312,61.002441 70.999168,60.984108 70.749603,61.057640 
	C70.341476,61.425121 70.182915,61.719070 70.009544,61.971588 
	C69.994743,61.930164 69.909660,61.907761 69.909660,61.907761 
z"/>
<path fill="#412C22" opacity="1.000000" stroke="none" 
	d="
M22.159952,34.810291 
	C21.455320,34.803223 20.916374,34.596554 20.178043,34.174580 
	C20.097063,33.660633 20.281925,33.411259 20.733578,33.089104 
	C21.397821,33.514935 21.861731,34.062813 22.159952,34.810291 
z"/>
<path fill="#71533D" opacity="1.000000" stroke="none" 
	d="
M32.973064,10.947170 
	C32.791363,10.974135 32.609661,11.001100 32.156139,11.073893 
	C32.015106,10.129217 32.145897,9.138715 32.536720,7.979009 
	C32.796757,7.809804 33.049419,8.061089 33.107792,8.506733 
	C33.101795,9.617308 33.037430,10.282239 32.973064,10.947170 
z"/>
<path fill="#47372E" opacity="1.000000" stroke="none" 
	d="
M14.317731,80.006973 
	C14.509136,79.200287 14.968741,78.202576 15.770986,77.113571 
	C15.604394,77.953506 15.095163,78.884727 14.317731,80.006973 
z"/>
<path fill="#86847B" opacity="1.000000" stroke="none" 
	d="
M59.121777,79.504242 
	C59.050327,80.293327 58.665108,80.802490 58.135490,80.843521 
	C57.984158,79.967110 57.977222,79.558830 57.970287,79.150543 
	C58.249523,79.175133 58.528763,79.199730 59.121777,79.504242 
z"/>
<path fill="#615F58" opacity="1.000000" stroke="none" 
	d="
M60.093681,76.085739 
	C60.547588,76.042168 61.001492,75.998596 61.798077,75.970512 
	C61.671272,76.750397 61.201790,77.514778 60.479309,78.338043 
	C59.977688,78.187233 59.729069,77.977531 59.512497,77.199173 
	C59.749214,76.470726 59.932259,76.289131 60.093681,76.085739 
z"/>
<path fill="#9F9C91" opacity="1.000000" stroke="none" 
	d="
M57.688049,79.083679 
	C57.977222,79.558830 57.984158,79.967110 57.979229,80.681190 
	C57.411667,80.834862 56.855965,80.682739 55.922516,80.316971 
	C56.165115,79.741150 56.785465,79.378983 57.688049,79.083679 
z"/>
<path fill="#493931" opacity="1.000000" stroke="none" 
	d="
M14.990759,48.684978 
	C14.610806,48.994888 14.167103,48.999420 13.391504,48.998749 
	C13.183221,48.417912 13.306830,47.842274 13.656574,47.067421 
	C14.230809,47.372005 14.578909,47.875801 14.990759,48.684978 
z"/>
<path fill="#B5B5AD" opacity="1.000000" stroke="none" 
	d="
M74.089142,55.569061 
	C73.398865,56.245197 72.868729,56.504242 72.058228,56.856895 
	C72.353302,55.960026 72.928726,54.969543 73.743446,53.711212 
	C74.071594,54.012901 74.160439,54.582436 74.089142,55.569061 
z"/>
<path fill="#483327" opacity="1.000000" stroke="none" 
	d="
M24.686474,25.024448 
	C24.731983,25.563257 24.516554,26.178244 24.050011,27.015720 
	C24.007778,26.525681 24.216658,25.813154 24.686474,25.024448 
z"/>
<path fill="#AEADA4" opacity="1.000000" stroke="none" 
	d="
M60.093323,75.690315 
	C59.932259,76.289131 59.749214,76.470726 59.378433,76.730072 
	C59.258675,75.925659 59.305035,75.021698 59.643875,73.921745 
	C59.988560,74.248802 60.040764,74.771843 60.093323,75.690315 
z"/>
<path fill="#AEADA4" opacity="1.000000" stroke="none" 
	d="
M62.687569,69.964043 
	C62.541969,70.534187 62.118088,71.232231 61.370644,71.957809 
	C61.501148,71.354218 61.955215,70.723076 62.687569,69.964043 
z"/>
<path fill="#483327" opacity="1.000000" stroke="none" 
	d="
M25.709433,22.957554 
	C25.771778,23.345343 25.596350,23.948475 25.186535,24.766613 
	C25.125320,24.378712 25.298491,23.775805 25.709433,22.957554 
z"/>
<path fill="#493D35" opacity="1.000000" stroke="none" 
	d="
M22.127953,91.376015 
	C22.379404,91.524254 22.622234,91.929482 22.893005,92.574394 
	C22.653740,92.420387 22.386534,92.026695 22.127953,91.376015 
z"/>
<path fill="#7A7D72" opacity="1.000000" stroke="none" 
	d="
M66.909470,65.905106 
	C66.946831,65.531609 67.126503,65.262932 67.658348,65.001358 
	C67.895164,64.931274 67.959435,64.946449 67.873947,65.186203 
	C67.591850,65.714684 67.324562,65.903198 66.986588,65.991508 
	C66.986588,65.991508 66.936424,65.932762 66.909470,65.905106 
z"/>
<path fill="#7F7A73" opacity="1.000000" stroke="none" 
	d="
M70.209137,118.195778 
	C70.551193,118.021248 70.753326,118.197220 70.962708,118.648537 
	C70.745651,118.710777 70.445412,118.584908 70.209137,118.195778 
z"/>
<path fill="#493931" opacity="1.000000" stroke="none" 
	d="
M12.763039,49.925014 
	C12.858284,50.090443 12.693516,50.375469 12.282167,50.786514 
	C12.250711,50.657528 12.406525,50.368221 12.763039,49.925014 
z"/>
<path fill="#B6B3A9" opacity="1.000000" stroke="none" 
	d="
M72.432594,114.968918 
	C72.030800,112.701973 72.041054,110.412941 72.293571,107.539398 
	C72.916595,106.343506 73.297356,105.732109 73.974472,105.204727 
	C77.162201,102.712898 77.009079,100.224655 74.085251,97.663239 
	C74.114632,97.509506 74.162270,97.200111 74.396179,97.128517 
	C74.630081,97.056923 75.094803,96.904045 75.399727,96.976471 
	C80.045601,97.382324 79.912109,93.085358 82.284210,90.975876 
	C86.343826,86.032341 90.058464,81.137245 93.867554,75.893982 
	C94.030937,75.315414 94.099861,75.085007 94.438530,74.926224 
	C95.133644,75.344681 95.559013,75.691521 96.005539,76.405754 
	C96.308304,77.531242 96.364990,78.660690 96.906960,78.988937 
	C101.433647,81.730774 99.785614,84.983223 97.793243,88.259102 
	C97.111458,89.380081 95.947472,90.278572 95.511497,91.465240 
	C94.095917,95.318298 90.881401,99.156944 94.862984,103.324783 
	C99.344437,108.015869 102.675667,108.649071 108.998810,106.016434 
	C111.628265,106.004372 114.257713,105.992310 117.321457,105.977661 
	C113.482330,107.318954 109.208923,108.662827 104.524689,110.025673 
	C97.289299,111.137047 90.466469,112.240440 83.639458,113.317368 
	C80.044952,113.884384 76.443146,114.405167 72.432594,114.968918 
z"/>
<path fill="#BEBBB1" opacity="1.000000" stroke="none" 
	d="
M108.841370,105.645401 
	C102.675667,108.649071 99.344437,108.015869 94.862984,103.324783 
	C90.881401,99.156944 94.095917,95.318298 95.511497,91.465240 
	C95.947472,90.278572 97.111458,89.380081 97.793243,88.259102 
	C99.785614,84.983223 101.433647,81.730774 96.906960,78.988937 
	C96.364990,78.660690 96.308304,77.531242 96.424072,76.399139 
	C98.913300,75.391266 101.005135,74.757385 103.096970,74.123512 
	C104.776047,74.072464 106.455124,74.021416 108.552597,73.960915 
	C115.686905,76.626862 117.059357,83.571503 111.921135,90.421654 
	C108.506310,94.974213 107.053680,99.731293 108.841370,105.645401 
z"/>
<path fill="#473126" opacity="1.000000" stroke="none" 
	d="
M42.027893,86.934082 
	C42.980820,88.384949 43.933743,89.835808 44.945053,91.617271 
	C42.715897,92.367401 40.428356,92.786934 37.691578,93.288857 
	C37.783012,95.338127 37.890980,97.758011 37.997913,100.588669 
	C34.624779,95.618912 32.516205,89.857819 33.201675,83.409874 
	C33.687916,78.836029 34.285591,74.259529 35.149204,69.744598 
	C35.933487,65.644424 35.236046,62.618790 30.939295,61.006329 
	C30.272551,60.756119 30.036993,59.356911 29.806660,58.244026 
	C33.012711,57.016632 36.014141,56.034256 39.362392,55.029301 
	C39.955952,57.472580 40.202686,59.938431 40.456436,62.751648 
	C40.300232,69.451576 40.137016,75.804146 39.642853,82.591202 
	C35.488922,83.807732 35.146778,86.193428 36.230713,89.994217 
	C38.377388,88.861061 40.202641,87.897575 42.027893,86.934082 
z"/>
<path fill="#807B6A" opacity="1.000000" stroke="none" 
	d="
M48.110435,38.588467 
	C48.610161,41.669758 48.799988,44.880768 48.965034,48.558243 
	C46.846485,50.984283 45.152275,53.686134 41.266388,52.971691 
	C41.865200,47.573910 41.532413,41.552483 48.110435,38.588467 
z"/>
<path fill="#412C22" opacity="1.000000" stroke="none" 
	d="
M32.990921,41.012409 
	C30.786814,40.207932 28.582706,39.403458 26.183193,38.310814 
	C30.082626,35.389301 34.177467,32.755955 38.631165,30.057829 
	C38.381016,31.119650 37.772003,32.246246 36.789673,33.884556 
	C35.274536,36.601646 34.132729,38.807030 32.990921,41.012409 
z"/>
<path fill="#332820" opacity="1.000000" stroke="none" 
	d="
M51.992393,17.703703 
	C52.410461,20.387060 52.619110,22.779255 52.854912,25.562790 
	C52.167553,25.963778 51.453049,25.973425 50.366703,25.704159 
	C49.300644,24.964941 48.606426,24.504639 47.692818,24.043261 
	C47.473427,24.042183 47.038147,24.097496 47.038147,24.097496 
	C46.554924,22.205240 46.071705,20.312984 45.287888,17.882601 
	C44.982780,16.908251 44.978268,16.472031 44.973755,16.035809 
	C47.696571,14.253835 49.921822,14.932781 51.992393,17.703703 
z"/>
<path fill="#5E4333" opacity="1.000000" stroke="none" 
	d="
M28.232643,45.215187 
	C29.574434,44.158302 31.125519,43.338566 33.234798,42.259399 
	C34.846191,42.012268 35.899391,42.024567 36.952591,42.036865 
	C35.458801,44.230701 33.965012,46.424541 32.220802,48.842865 
	C30.794237,47.862347 29.618088,46.657341 28.232643,45.215187 
z"/>
<path fill="#4E3426" opacity="1.000000" stroke="none" 
	d="
M33.126438,11.263231 
	C33.037430,10.282239 33.101795,9.617308 33.233734,8.632771 
	C35.358562,10.096489 37.415825,11.879815 39.774193,13.834604 
	C40.064056,14.439072 40.052814,14.872076 40.055771,15.629395 
	C37.806587,14.495570 35.543198,13.037431 33.126438,11.263231 
z"/>
<path fill="#473126" opacity="1.000000" stroke="none" 
	d="
M37.155483,41.893570 
	C35.899391,42.024567 34.846191,42.012268 33.397182,41.995888 
	C33.001373,41.991806 32.998253,41.501923 32.994587,41.257164 
	C34.132729,38.807030 35.274536,36.601646 36.709633,34.198708 
	C37.334091,35.095188 37.665268,36.189228 37.998474,38.016457 
	C38.000877,39.499939 38.001251,40.250233 38.001621,41.000526 
	C37.829830,41.287003 37.615417,41.536919 37.155483,41.893570 
z"/>
<path fill="#473126" opacity="1.000000" stroke="none" 
	d="
M53.495232,30.012640 
	C53.907120,30.452587 53.938908,30.900406 53.965721,31.685616 
	C52.869545,33.004463 51.778339,33.985920 50.343475,34.983765 
	C49.999821,35.000153 49.986031,34.990108 49.986031,34.990108 
	C50.113277,32.756954 49.414696,30.003815 53.495232,30.012640 
z"/>
<path fill="#473126" opacity="1.000000" stroke="none" 
	d="
M40.206974,29.214359 
	C40.190922,28.465319 40.383907,27.933161 40.780487,27.199181 
	C41.847755,27.769154 42.845757,28.448050 43.486279,29.374182 
	C43.659264,29.624304 42.748699,30.623819 42.335491,31.279354 
	C41.695667,30.663319 41.055843,30.047283 40.206974,29.214359 
z"/>
<path fill="#4E3426" opacity="1.000000" stroke="none" 
	d="
M44.562767,16.037886 
	C44.978268,16.472031 44.982780,16.908251 44.984718,17.671906 
	C43.405293,17.543253 41.828438,17.087170 40.145927,16.281469 
	C41.410774,15.967890 42.781273,16.003925 44.562767,16.037886 
z"/>
<path fill="#48352A" opacity="1.000000" stroke="none" 
	d="
M38.300232,40.915794 
	C38.001251,40.250233 38.000877,39.499939 38.000862,38.374489 
	C38.200428,38.943241 38.399635,39.887150 38.300232,40.915794 
z"/>
<path fill="#473126" opacity="1.000000" stroke="none" 
	d="
M47.912209,24.044338 
	C48.606426,24.504639 49.300644,24.964941 50.008186,25.706928 
	C49.598820,25.992874 49.176128,25.997131 48.396835,25.676407 
	C47.997555,24.915730 47.954880,24.480034 47.912209,24.044338 
z"/>
<path fill="#656457" opacity="1.000000" stroke="none" 
	d="
M47.692818,24.043261 
	C47.954880,24.480034 47.997555,24.915730 48.080017,25.677826 
	C47.756981,25.533487 47.394157,25.062746 47.034737,24.344749 
	C47.038147,24.097496 47.473427,24.042183 47.692818,24.043261 
z"/>
<path fill="#473126" opacity="1.000000" stroke="none" 
	d="
M50.004875,35.006989 
	C50.009933,35.013828 49.825371,35.282902 49.825371,35.282902 
	C49.825371,35.282902 49.834934,35.075920 49.910484,35.033012 
	C49.986031,34.990108 49.999821,35.000153 50.004875,35.006989 
z"/>
<path fill="#B1AB9B" opacity="1.000000" stroke="none" 
	d="
M102.987938,70.982887 
	C102.987938,70.982887 102.523140,71.128418 101.871368,71.124886 
	C99.814346,71.074799 98.409096,71.028244 96.792999,70.739296 
	C95.129013,69.651855 93.675873,68.806816 92.200211,67.593414 
	C92.133942,66.488716 92.090210,65.752388 92.046486,65.016060 
	C92.046486,65.016060 92.115608,64.612740 92.436249,64.309494 
	C93.478729,62.992191 94.200569,61.978130 94.922409,60.964066 
	C97.044487,62.284203 99.166565,63.604340 101.655441,65.352150 
	C102.344139,67.514175 102.666039,69.248535 102.987938,70.982887 
z"/>
<path fill="#585650" opacity="1.000000" stroke="none" 
	d="
M80.994026,61.083427 
	C81.804848,61.303963 82.615662,61.524498 83.742813,61.803879 
	C85.253250,63.429283 86.447365,64.995842 87.927147,66.967026 
	C88.459137,67.588402 88.705452,67.805145 89.055695,68.367340 
	C89.674339,69.804329 90.189056,70.895866 90.316940,71.951859 
	C88.407776,70.552414 87.006325,69.009644 85.328514,67.875824 
	C83.706726,66.779861 81.800217,66.105225 79.792801,65.098114 
	C79.390007,64.646950 79.213196,64.343201 79.305771,63.881531 
	C80.048111,62.843555 80.521072,61.963493 80.994026,61.083427 
z"/>
<path fill="#D7D6CB" opacity="1.000000" stroke="none" 
	d="
M97.003845,70.981697 
	C98.409096,71.028244 99.814346,71.074799 101.638298,71.195480 
	C102.258377,72.062439 102.459755,72.855263 102.879044,73.885796 
	C101.005135,74.757385 98.913300,75.391266 96.402924,76.031754 
	C95.559013,75.691521 95.133644,75.344681 94.365479,74.584503 
	C93.871689,73.485397 93.720688,72.799629 93.947891,72.074219 
	C95.218681,71.683609 96.111259,71.332649 97.003845,70.981697 
z"/>
<path fill="#AFA996" opacity="1.000000" stroke="none" 
	d="
M87.402924,57.110817 
	C81.960396,53.810127 81.896393,53.175266 86.672211,50.049683 
	C87.473442,50.289104 87.926926,50.600105 88.655197,51.426174 
	C89.292442,53.648003 89.654907,55.354763 90.017365,57.061527 
	C89.270271,57.075851 88.523186,57.090176 87.402924,57.110817 
z"/>
<path fill="#C2BCAB" opacity="1.000000" stroke="none" 
	d="
M103.341866,70.997063 
	C102.666039,69.248535 102.344139,67.514175 102.004868,65.400940 
	C103.387924,65.000290 104.788368,64.978523 106.598862,65.370804 
	C106.985886,67.184128 106.962845,68.583405 106.939804,69.982681 
	C105.858467,70.325531 104.777130,70.668388 103.341866,70.997063 
z"/>
<path fill="#C5C2B5" opacity="1.000000" stroke="none" 
	d="
M90.251244,57.272118 
	C89.654907,55.354763 89.292442,53.648003 88.886932,51.576965 
	C90.033997,51.331337 91.224121,51.449978 92.701355,52.213448 
	C92.970947,54.560452 92.953430,56.262630 92.935921,57.964806 
	C92.118988,57.804104 91.302055,57.643406 90.251244,57.272118 
z"/>
<path fill="#D8D5C7" opacity="1.000000" stroke="none" 
	d="
M93.250023,57.832153 
	C92.953430,56.262630 92.970947,54.560452 92.986343,52.432182 
	C94.159218,52.599766 95.334229,53.193443 96.509232,53.787125 
	C95.527534,55.091251 94.545830,56.395374 93.250023,57.832153 
z"/>
<path fill="#D6D4C8" opacity="1.000000" stroke="none" 
	d="
M107.238815,69.800735 
	C106.962845,68.583405 106.985886,67.184128 107.018753,65.362701 
	C109.563484,65.727966 109.634392,66.379341 107.238815,69.800735 
z"/>
<path fill="#D6D4C8" opacity="1.000000" stroke="none" 
	d="
M88.951775,68.021896 
	C88.705452,67.805145 88.459137,67.588402 88.217178,67.116455 
	C89.280106,66.249176 90.338661,65.637077 91.721848,65.020523 
	C92.090210,65.752388 92.133942,66.488716 91.787430,67.603653 
	C90.582054,67.995476 89.766914,68.008682 88.951775,68.021896 
z"/>
<path fill="#D6D4C8" opacity="1.000000" stroke="none" 
	d="
M94.566635,60.999950 
	C94.200569,61.978130 93.478729,62.992191 92.440048,64.104919 
	C92.819092,63.147678 93.514977,62.091755 94.566635,60.999950 
z"/>
<path fill="#D8D5C7" opacity="1.000000" stroke="none" 
	d="
M84.249428,59.785744 
	C84.235367,59.216381 84.417595,58.443356 84.799698,57.834053 
	C84.814957,58.525879 84.630341,59.053978 84.249428,59.785744 
z"/>
<path fill="#86847B" opacity="1.000000" stroke="none" 
	d="
M75.094803,96.904045 
	C75.094803,96.904045 74.630081,97.056923 74.307449,96.803406 
	C72.972626,96.372887 71.960426,96.195885 70.637848,96.018066 
	C69.914818,96.030243 69.502167,96.043236 68.956573,95.771194 
	C67.799324,94.371292 66.775017,93.256416 65.750710,92.141541 
	C63.483883,89.674454 61.217056,87.207375 58.896526,84.385231 
	C61.194637,80.482712 64.834190,81.050858 68.641388,81.397278 
	C70.096886,84.240219 71.281502,86.728760 72.309883,89.280273 
	C73.320724,91.788261 74.172958,94.360184 75.094803,96.904045 
z"/>
<path fill="#949289" opacity="1.000000" stroke="none" 
	d="
M73.678108,105.120720 
	C73.297356,105.732109 72.916595,106.343506 72.309769,107.113235 
	C71.009979,105.642128 69.936264,104.012680 69.375504,102.179367 
	C70.617409,101.959297 71.346344,101.943092 72.312172,101.818405 
	C72.729866,101.413338 72.910675,101.116745 73.120522,100.672729 
	C73.149559,100.525291 73.083221,100.232178 73.089432,100.177582 
	C73.095642,100.122986 73.004608,100.065712 73.315598,100.184525 
	C73.643761,101.909126 73.660934,103.514923 73.678108,105.120720 
z"/>
<path fill="#75726C" opacity="1.000000" stroke="none" 
	d="
M72.075287,101.926895 
	C71.346344,101.943092 70.617409,101.959297 69.527985,101.966278 
	C68.871216,101.172142 68.574936,100.387215 68.413361,99.168839 
	C69.301399,98.077736 70.054741,97.420082 70.976517,97.070435 
	C71.791046,98.329689 72.437134,99.280937 73.083221,100.232178 
	C73.083221,100.232178 73.149559,100.525291 72.919189,100.831207 
	C72.484314,101.400375 72.279800,101.663635 72.075287,101.926895 
z"/>
<path fill="#7B796E" opacity="1.000000" stroke="none" 
	d="
M65.791985,92.435760 
	C66.775017,93.256416 67.799324,94.371292 68.800934,95.953918 
	C68.560997,96.661613 68.307770,96.854240 67.687798,96.995956 
	C66.916954,97.004150 66.476845,97.015915 66.036743,97.027687 
	C66.004608,96.595322 65.972466,96.162956 65.953362,95.113495 
	C65.957069,94.302452 65.947746,94.108498 65.938431,93.914543 
	C65.903374,93.519684 65.868317,93.124832 65.791985,92.435760 
z"/>
<path fill="#938E86" opacity="1.000000" stroke="none" 
	d="
M60.980778,94.646782 
	C60.029690,93.561279 59.067612,92.114151 58.058636,90.330093 
	C58.997757,91.423828 59.983772,92.854492 60.980778,94.646782 
z"/>
<path fill="#938E86" opacity="1.000000" stroke="none" 
	d="
M63.216660,99.763000 
	C62.400665,98.871559 61.762997,97.749092 61.096741,96.295532 
	C61.843765,97.153618 62.619373,98.342796 63.216660,99.763000 
z"/>
<path fill="#908E83" opacity="1.000000" stroke="none" 
	d="
M68.018539,96.999527 
	C68.307770,96.854240 68.560997,96.661613 68.933868,96.238937 
	C69.502167,96.043236 69.914818,96.030243 70.611221,96.205429 
	C70.894974,96.393600 70.808083,96.762436 70.808075,96.762436 
	C70.054741,97.420082 69.301399,98.077736 68.284622,98.878860 
	C68.021187,99.022331 68.002220,98.541557 68.010101,98.035561 
	C68.018173,97.352890 68.018356,97.176208 68.018539,96.999527 
z"/>
<path fill="#938E86" opacity="1.000000" stroke="none" 
	d="
M65.184021,103.800613 
	C64.720146,103.516563 64.415314,103.036835 64.071030,102.268463 
	C64.468742,102.521530 64.905899,103.063232 65.184021,103.800613 
z"/>
<path fill="#605E53" opacity="1.000000" stroke="none" 
	d="
M67.687798,96.995956 
	C68.018356,97.176208 68.018173,97.352890 68.013458,97.795021 
	C67.439568,97.898956 66.870216,97.737442 66.168808,97.301804 
	C66.476845,97.015915 66.916954,97.004150 67.687798,96.995956 
z"/>
<path fill="#86847B" opacity="1.000000" stroke="none" 
	d="
M65.766083,93.908890 
	C65.947746,94.108498 65.957069,94.302452 65.952263,94.788261 
	C65.938133,95.080116 65.469131,95.038910 65.282974,94.751900 
	C65.148338,94.291527 65.199867,94.118172 65.251389,93.944817 
	C65.251389,93.944817 65.593742,93.903229 65.766083,93.908890 
z"/>
<path fill="#7B796E" opacity="1.000000" stroke="none" 
	d="
M65.038818,93.977036 
	C65.199867,94.118172 65.148338,94.291527 65.048424,94.731804 
	C64.852707,94.776077 64.682693,94.563606 64.574951,94.323219 
	C64.549904,94.267334 64.736839,94.116432 65.038818,93.977036 
z"/>
<path fill="#4B362C" opacity="1.000000" stroke="none" 
	d="
M42.091007,86.599121 
	C40.202641,87.897575 38.377388,88.861061 36.230713,89.994217 
	C35.146778,86.193428 35.488922,83.807732 39.685944,83.002861 
	C41.133121,82.640511 42.206268,82.300987 43.607414,81.864922 
	C43.341652,83.266975 42.747887,84.765572 42.091007,86.599121 
z"/>
<path fill="#306946" opacity="1.000000" stroke="none" 
	d="
M75.399727,96.976471 
	C74.172958,94.360184 73.320724,91.788261 72.309883,89.280273 
	C71.281502,86.728760 70.096886,84.240219 68.964172,81.342491 
	C71.073441,78.306328 73.199226,75.651779 75.782852,73.186409 
	C76.484673,75.589142 76.728653,77.802681 76.984512,80.007736 
	C76.996399,79.999237 77.012367,79.975128 76.775986,80.223915 
	C75.817879,82.772766 76.180565,83.880775 79.051003,83.528748 
	C80.233627,83.383713 81.576530,84.545677 82.632004,85.316284 
	C82.258057,87.354362 82.098648,89.189339 81.939240,91.024307 
	C79.912109,93.085358 80.045601,97.382324 75.399727,96.976471 
z"/>
<path fill="#759377" opacity="1.000000" stroke="none" 
	d="
M76.972626,80.016228 
	C76.728653,77.802681 76.484673,75.589142 76.119576,73.093765 
	C76.224724,72.052650 76.450996,71.293373 76.830147,69.961304 
	C77.975533,68.953934 78.968040,68.519356 80.099396,68.382332 
	C80.818871,70.800705 81.399490,72.921524 82.026413,75.211502 
	C85.652954,75.101067 87.171242,77.148804 86.896080,81.015022 
	C85.452293,82.593544 84.149414,83.853355 82.846527,85.113167 
	C81.576530,84.545677 80.233627,83.383713 79.051003,83.528748 
	C76.180565,83.880775 75.817879,82.772766 76.816689,80.295776 
	C77.093773,80.118843 77.255424,80.137230 77.255424,80.137230 
	C77.255424,80.137230 76.972626,80.016228 76.972626,80.016228 
z"/>
<path fill="#4A6351" opacity="1.000000" stroke="none" 
	d="
M72.038773,65.958939 
	C72.087975,65.708382 72.137169,65.457832 72.230042,64.751373 
	C72.273712,64.295456 72.528702,64.036049 72.839134,63.961334 
	C73.426765,63.584274 73.703957,63.281929 73.988159,63.002151 
	C73.995163,63.024723 73.949562,63.032661 73.949562,63.032661 
	C74.410263,63.131454 74.870964,63.230251 75.732605,63.574455 
	C76.246338,64.000549 76.385406,64.158066 76.555092,64.595573 
	C75.985680,66.180138 75.411934,67.461540 74.838181,68.742943 
	C74.089218,68.551773 73.340256,68.360611 72.315720,67.703690 
	C72.039688,66.811600 72.039230,66.385269 72.038773,65.958939 
z"/>
<path fill="#9C9A8D" opacity="1.000000" stroke="none" 
	d="
M75.040833,68.981499 
	C75.411934,67.461540 75.985680,66.180138 76.699249,64.243629 
	C76.915100,63.348305 76.991119,63.108074 77.382339,62.923779 
	C78.120590,62.932690 78.543655,62.885662 78.977303,63.139236 
	C79.004059,63.639706 79.020218,63.839573 79.036385,64.039444 
	C79.213196,64.343201 79.390007,64.646950 79.788742,65.451492 
	C79.993950,66.663109 79.977249,67.373947 79.960541,68.084778 
	C78.968040,68.519356 77.975533,68.953934 76.943237,69.682831 
	C76.350121,69.724792 75.796799,69.472420 75.040833,68.981499 
z"/>
<path fill="#765B50" opacity="1.000000" stroke="none" 
	d="
M68.600815,71.216995 
	C68.212067,70.788368 68.104347,70.293694 68.186005,69.211349 
	C68.618797,68.068687 68.862198,67.513710 69.105606,66.958733 
	C69.289673,67.028381 69.473732,67.098038 70.006035,67.359512 
	C70.354286,67.551338 70.723602,67.856163 70.899292,68.095993 
	C71.374382,68.587059 71.673775,68.838295 71.973167,69.089531 
	C72.099785,69.849419 72.226402,70.609314 72.353020,71.369202 
	C71.758415,71.321510 71.163803,71.273811 70.302185,71.135864 
	C69.650734,71.080734 69.266289,71.115852 68.600815,71.216995 
z"/>
<path fill="#A3A298" opacity="1.000000" stroke="none" 
	d="
M71.993774,68.785782 
	C71.673775,68.838295 71.374382,68.587059 70.903854,67.953766 
	C70.732727,67.571716 70.670143,67.291725 70.670143,67.291725 
	C70.950531,66.970055 71.230911,66.648392 71.775040,66.142830 
	C72.039230,66.385269 72.039688,66.811600 72.053009,67.556625 
	C72.048714,68.077553 72.031548,68.279793 71.993774,68.785782 
z"/>
<path fill="#7C4537" opacity="1.000000" stroke="none" 
	d="
M78.966713,62.838638 
	C78.543655,62.885662 78.120590,62.932690 77.338379,62.518753 
	C76.995117,60.702045 77.011017,59.346302 77.026924,57.990562 
	C77.026924,57.990562 76.989342,57.991985 77.380417,58.046928 
	C78.549217,58.045212 79.326935,57.988548 80.104652,57.931889 
	C80.104652,57.931889 80.300705,58.313210 80.239304,58.862000 
	C79.774178,60.553406 79.370445,61.696018 78.966713,62.838638 
z"/>
<path fill="#868177" opacity="1.000000" stroke="none" 
	d="
M78.977303,63.139236 
	C79.370445,61.696018 79.774178,60.553406 80.313431,59.063160 
	C80.646210,59.295879 80.843468,59.876228 81.017372,60.770004 
	C80.521072,61.963493 80.048111,62.843555 79.305771,63.881531 
	C79.020218,63.839573 79.004059,63.639706 78.977303,63.139236 
z"/>
<path fill="#B5B5AD" opacity="1.000000" stroke="none" 
	d="
M76.900146,52.901024 
	C76.527725,53.254196 76.128273,53.354431 75.424606,53.507988 
	C75.704636,53.256905 76.288879,52.952496 76.900146,52.901024 
z"/>
<path fill="#868177" opacity="1.000000" stroke="none" 
	d="
M79.974480,57.661140 
	C79.326935,57.988548 78.549217,58.045212 77.383484,58.065479 
	C77.209938,57.729588 77.424400,57.430088 77.907364,57.038929 
	C78.732010,57.094978 79.288162,57.242687 79.974480,57.661140 
z"/>
<path fill="#868177" opacity="1.000000" stroke="none" 
	d="
M76.814125,58.134621 
	C77.011017,59.346302 76.995117,60.702045 77.023178,62.462814 
	C76.991119,63.108074 76.915100,63.348305 76.694916,63.940475 
	C76.385406,64.158066 76.246338,64.000549 76.069603,63.681366 
	C75.998390,62.561398 75.991112,61.579922 75.964188,60.109581 
	C76.163467,59.173374 76.382401,58.726028 76.814125,58.134621 
z"/>
<path fill="#813D2E" opacity="1.000000" stroke="none" 
	d="
M72.528702,64.036049 
	C72.528702,64.036049 72.273712,64.295456 72.240753,64.368515 
	C71.469193,63.833126 70.730591,63.224686 69.950821,62.262001 
	C69.909660,61.907761 69.994743,61.930164 70.214188,61.842911 
	C70.697891,61.553997 70.886398,61.296814 70.999168,60.984108 
	C70.999168,60.984108 71.002312,61.002441 71.371849,60.991310 
	C72.244614,60.933128 72.747849,60.886082 73.251076,60.839035 
	C73.424683,61.382534 73.598289,61.926029 73.860733,62.751091 
	C73.949562,63.032661 73.995163,63.024723 73.696625,63.095840 
	C73.108284,63.456654 72.818489,63.746349 72.528702,64.036049 
z"/>
<path fill="#7B5B51" opacity="1.000000" stroke="none" 
	d="
M73.062210,60.576839 
	C72.747849,60.886082 72.244614,60.933128 71.363289,60.987816 
	C70.985191,60.995457 70.968849,60.520618 70.999191,60.285164 
	C71.644135,60.138020 72.258743,60.226330 73.062210,60.576839 
z"/>
<path fill="#546251" opacity="1.000000" stroke="none" 
	d="
M69.032852,66.678383 
	C68.862198,67.513710 68.618797,68.068687 68.151932,68.834717 
	C67.640991,68.246078 67.353508,67.446388 67.026306,66.319107 
	C67.324562,65.903198 67.591850,65.714684 67.902023,65.203583 
	C68.330421,65.453491 68.645256,65.925758 69.032852,66.678383 
z"/>
<path fill="#546251" opacity="1.000000" stroke="none" 
	d="
M70.553391,67.300735 
	C70.670143,67.291725 70.732727,67.571716 70.728165,67.713943 
	C70.723602,67.856163 70.354286,67.551338 70.282753,67.462280 
	C70.211220,67.373230 70.436646,67.309753 70.553391,67.300735 
z"/>
<path fill="#7B5B51" opacity="1.000000" stroke="none" 
	d="
M70.749603,61.057640 
	C70.886398,61.296814 70.697891,61.553997 70.228989,61.884338 
	C70.182915,61.719070 70.341476,61.425121 70.749603,61.057640 
z"/>
<path fill="#A0A193" opacity="1.000000" stroke="none" 
	d="
M80.099396,68.382332 
	C79.977249,67.373947 79.993950,66.663109 80.014709,65.598900 
	C81.800217,66.105225 83.706726,66.779861 85.328514,67.875824 
	C87.006325,69.009644 88.407776,70.552414 90.595428,71.891113 
	C92.030388,71.948578 92.800041,72.031219 93.569687,72.113869 
	C93.720688,72.799629 93.871689,73.485397 94.095741,74.512878 
	C94.099861,75.085007 94.030937,75.315414 93.576462,75.885712 
	C91.139603,77.715828 89.088295,79.206070 87.036980,80.696312 
	C87.171242,77.148804 85.652954,75.101067 82.026413,75.211502 
	C81.399490,72.921524 80.818871,70.800705 80.099396,68.382332 
z"/>
<path fill="#616B57" opacity="1.000000" stroke="none" 
	d="
M86.896080,81.015022 
	C89.088295,79.206070 91.139603,77.715828 93.482010,76.233871 
	C90.058464,81.137245 86.343826,86.032341 82.284210,90.975876 
	C82.098648,89.189339 82.258057,87.354362 82.632004,85.316284 
	C84.149414,83.853355 85.452293,82.593544 86.896080,81.015022 
z"/>
<path fill="#76746C" opacity="1.000000" stroke="none" 
	d="
M70.976517,97.070442 
	C70.808083,96.762436 70.894974,96.393600 70.921600,96.206245 
	C71.960426,96.195885 72.972626,96.372887 74.073547,96.875000 
	C74.162270,97.200111 74.114632,97.509506 73.964340,97.949730 
	C73.544235,98.948540 73.274422,99.507126 73.004608,100.065712 
	C73.004608,100.065712 73.095642,100.122986 73.089432,100.177582 
	C72.437134,99.280937 71.791046,98.329689 70.976517,97.070442 
z"/>
<path fill="#605B55" opacity="1.000000" stroke="none" 
	d="
M73.315598,100.184525 
	C73.274422,99.507126 73.544235,98.948540 73.934952,98.103470 
	C77.009079,100.224655 77.162201,102.712898 73.974472,105.204727 
	C73.660934,103.514923 73.643761,101.909126 73.315598,100.184525 
z"/>
<path fill="#CAC8B9" opacity="1.000000" stroke="none" 
	d="
M93.947891,72.074219 
	C92.800041,72.031219 92.030388,71.948578 90.982254,71.926666 
	C90.189056,70.895866 89.674339,69.804329 89.055695,68.367340 
	C89.766914,68.008682 90.582054,67.995476 91.809967,67.972015 
	C93.675873,68.806816 95.129013,69.651855 96.792999,70.739296 
	C96.111259,71.332649 95.218681,71.683609 93.947891,72.074219 
z"/>
<path fill="#605B55" opacity="1.000000" stroke="none" 
	d="
M72.312172,101.818413 
	C72.279800,101.663635 72.484314,101.400375 72.890152,100.978638 
	C72.910675,101.116745 72.729866,101.413338 72.312172,101.818413 
z"/>
<path fill="#306946" opacity="1.000000" stroke="none" 
	d="
M76.984512,80.007736 
	C76.972626,80.016228 77.255424,80.137230 77.255424,80.137230 
	C77.255424,80.137230 77.093773,80.118843 77.053070,80.046982 
	C77.012367,79.975128 76.996399,79.999237 76.984512,80.007736 
z"/>
<path fill="#87857C" opacity="1.000000" stroke="none" 
	d="
M72.839134,63.961334 
	C72.818489,63.746349 73.108284,63.456654 73.689621,63.073273 
	C73.703957,63.281929 73.426765,63.584274 72.839134,63.961334 
z"/>
</svg>